<?xml version="1.0" encoding="UTF-8"?><svg xmlns="http://www.w3.org/2000/svg" xmlns:xlink="http://www.w3.org/1999/xlink" viewBox="0 0 2475 1650"><defs><style>.cls-1{fill:url(#linear-gradient-75);}.cls-2{fill:url(#linear-gradient-119);}.cls-3{fill:url(#linear-gradient-51);}.cls-4,.cls-5,.cls-6{fill:#fff;}.cls-7{fill:url(#linear-gradient-122);}.cls-8{fill:url(#linear-gradient-17);}.cls-9{fill:url(#linear-gradient-87);}.cls-10{fill:url(#linear-gradient-93);}.cls-11{fill:url(#linear-gradient-92);}.cls-12{fill:url(#linear-gradient-80);}.cls-13{fill:url(#linear-gradient-109);}.cls-14{fill:url(#linear-gradient-43);}.cls-15{fill:url(#linear-gradient-125);}.cls-16{fill:url(#linear-gradient-133);}.cls-17{fill:url(#linear-gradient-15);}.cls-18{fill:url(#linear-gradient-58);}.cls-19{fill:url(#linear-gradient-69);}.cls-20{fill:url(#linear-gradient-81);}.cls-21{fill:url(#linear-gradient-18);}.cls-22{fill:url(#linear-gradient-56);}.cls-23{fill:url(#linear-gradient-40);}.cls-24{fill:url(#linear-gradient-131);}.cls-25{fill:url(#linear-gradient-52);}.cls-26{fill:url(#linear-gradient-28);}.cls-27{fill:url(#linear-gradient-14);}.cls-28{fill:url(#linear-gradient-36);}.cls-29{fill:url(#linear-gradient-78);}.cls-30{fill:url(#linear-gradient-20);}.cls-31{fill:url(#linear-gradient-6);}.cls-32{fill:url(#linear-gradient-130);}.cls-33{fill:url(#linear-gradient-53);}.cls-34{isolation:isolate;}.cls-35{fill:url(#linear-gradient-91);}.cls-36{fill:url(#linear-gradient-60);}.cls-37{fill:url(#linear-gradient-108);}.cls-38{fill:url(#linear-gradient-84);}.cls-5,.cls-39{opacity:.5;}.cls-40{fill:url(#linear-gradient-104);}.cls-41{fill:url(#linear-gradient-128);}.cls-42{fill:url(#linear-gradient-35);}.cls-43{fill:url(#linear-gradient-48);}.cls-44{fill:url(#linear-gradient-32);}.cls-45{fill:url(#linear-gradient-120);}.cls-46{fill:url(#linear-gradient-97);}.cls-47{fill:url(#linear-gradient-11);}.cls-48{fill:url(#linear-gradient-50);}.cls-49{mix-blend-mode:soft-light;}.cls-50{fill:url(#linear-gradient-106);}.cls-51{fill:url(#linear-gradient-111);}.cls-52{fill:url(#linear-gradient-63);}.cls-53{fill:url(#linear-gradient-67);}.cls-54{fill:url(#linear-gradient-95);}.cls-55{fill:url(#linear-gradient-86);}.cls-56{fill:url(#linear-gradient-39);}.cls-57{fill:url(#linear-gradient-110);}.cls-58{fill:url(#linear-gradient-124);}.cls-59{fill:url(#linear-gradient-10);}.cls-60{fill:url(#linear-gradient-59);}.cls-61{fill:url(#linear-gradient-117);}.cls-62{fill:url(#linear-gradient-49);}.cls-63{fill:url(#linear-gradient-37);}.cls-64{fill:url(#linear-gradient-82);}.cls-65{fill:url(#linear-gradient-16);}.cls-66,.cls-67{opacity:.3;}.cls-68{fill:url(#linear-gradient-31);}.cls-69{fill:url(#linear-gradient-85);}.cls-70{fill:url(#linear-gradient-127);}.cls-71{fill:url(#linear-gradient-112);}.cls-72{fill:url(#linear-gradient-61);}.cls-73{fill:url(#linear-gradient-114);}.cls-74{fill:url(#linear-gradient-68);}.cls-75{fill:url(#linear-gradient-103);}.cls-76{fill:url(#linear-gradient-62);}.cls-77{fill:url(#linear-gradient-107);}.cls-78{fill:url(#linear-gradient-41);}.cls-79{fill:url(#linear-gradient-76);}.cls-80{fill:url(#linear-gradient-98);}.cls-81{fill:url(#linear-gradient-21);}.cls-82{fill:url(#linear-gradient-72);}.cls-39{fill:url(#linear-gradient-2);}.cls-83{fill:url(#linear-gradient-25);}.cls-84{fill:url(#linear-gradient-121);}.cls-85{fill:url(#linear-gradient-89);}.cls-86{fill:url(#linear-gradient-5);}.cls-87{fill:url(#linear-gradient-64);}.cls-88{fill:url(#linear-gradient-102);}.cls-89{fill:url(#linear-gradient-83);}.cls-90{fill:url(#linear-gradient-54);}.cls-91{fill:url(#linear-gradient-45);}.cls-92{fill:url(#linear-gradient-113);}.cls-93{fill:url(#linear-gradient-55);}.cls-94{clip-path:url(#clippath);}.cls-95{fill:url(#linear-gradient-34);}.cls-96{fill:url(#linear-gradient-118);}.cls-97{fill:url(#linear-gradient-65);}.cls-98{fill:url(#linear-gradient-70);}.cls-99{fill:none;}.cls-100{fill:url(#linear-gradient-79);}.cls-101{fill:url(#linear-gradient-88);}.cls-102{fill:url(#linear-gradient-7);}.cls-103{fill:url(#linear-gradient-66);}.cls-104{fill:url(#linear-gradient-96);}.cls-105{fill:url(#linear-gradient-24);}.cls-106{fill:url(#linear-gradient-73);}.cls-107{fill:url(#linear-gradient-100);}.cls-108{fill:url(#linear-gradient-105);}.cls-109{fill:url(#linear-gradient-9);}.cls-110{fill:url(#linear-gradient-129);}.cls-111{fill:url(#linear-gradient-22);}.cls-112{fill:url(#linear-gradient-74);}.cls-113{fill:url(#linear-gradient-42);}.cls-114{fill:url(#linear-gradient-99);}.cls-115{fill:url(#linear-gradient-3);}.cls-6{opacity:.58;}.cls-116{fill:url(#linear-gradient-123);}.cls-117{fill:url(#linear-gradient-27);}.cls-118{fill:url(#linear-gradient-116);}.cls-119{fill:url(#linear-gradient-132);}.cls-120{fill:url(#linear-gradient-33);}.cls-121{fill:url(#linear-gradient-38);}.cls-122{fill:url(#linear-gradient-94);}.cls-123{fill:url(#linear-gradient-29);}.cls-124{fill:url(#linear-gradient-30);}.cls-125{fill:url(#linear-gradient-126);}.cls-126{fill:url(#linear-gradient-23);}.cls-127{fill:url(#linear-gradient-19);}.cls-128{fill:url(#linear-gradient-71);}.cls-129{fill:url(#linear-gradient-4);}.cls-130{fill:url(#linear-gradient-77);}.cls-131{fill:url(#linear-gradient-115);}.cls-132{fill:url(#linear-gradient-8);}.cls-133{fill:url(#linear-gradient-90);}.cls-134{fill:url(#linear-gradient-44);}.cls-135{fill:url(#linear-gradient-57);}.cls-67{fill:url(#linear-gradient);}.cls-136{fill:url(#linear-gradient-47);}.cls-137{fill:url(#linear-gradient-46);}.cls-138{fill:url(#linear-gradient-12);}.cls-139{fill:url(#linear-gradient-13);}.cls-140{fill:url(#linear-gradient-26);}.cls-141{fill:url(#linear-gradient-101);}</style><linearGradient id="linear-gradient" x1="-1557.43" y1="3412.77" x2="630.43" y2="3412.77" gradientTransform="translate(774 4250) rotate(-180)" gradientUnits="userSpaceOnUse"><stop offset="0" stop-color="#b37cff"/><stop offset="1" stop-color="#f895e7"/></linearGradient><linearGradient id="linear-gradient-2" x1="487.66" y1="3452.9" x2="2590.26" y2="3452.9" gradientTransform="translate(-258.84 4250) scale(1 -1)" xlink:href="#linear-gradient"/><linearGradient id="linear-gradient-3" x1="1214.61" y1="515.75" x2="1274.57" y2="1939.85" gradientTransform="matrix(1, 0, 0, 1, 0, 0)" gradientUnits="userSpaceOnUse"><stop offset="0" stop-color="#fdf53f"/><stop offset="1" stop-color="#d93c65"/></linearGradient><linearGradient id="linear-gradient-4" x1="1214.09" y1="203.78" x2="1272.08" y2="1580.98" xlink:href="#linear-gradient-3"/><clipPath id="clippath"><polygon class="cls-99" points="697.64 789.07 1238.24 1115.39 1748 808.35 1748 333 740.08 333 697.64 789.07"/></clipPath><linearGradient id="linear-gradient-5" x1="1512.77" y1="736.05" x2="961.44" y2="1491.72" gradientTransform="matrix(1, 0, 0, 1, 0, 0)" gradientUnits="userSpaceOnUse"><stop offset="0" stop-color="#53d8ff"/><stop offset="1" stop-color="#3840f7"/></linearGradient><linearGradient id="linear-gradient-6" x1="1283.04" y1="364.72" x2="1180.69" y2="1436.33" xlink:href="#linear-gradient-5"/><linearGradient id="linear-gradient-7" x1="2063.01" y1="806.75" x2="2065.66" y2="806.75" gradientTransform="matrix(1, 0, 0, 1, 0, 0)" gradientUnits="userSpaceOnUse"><stop offset="0" stop-color="#9cfffb"/><stop offset="1" stop-color="#9bfffa"/></linearGradient><linearGradient id="linear-gradient-8" x1="2064.04" y1="827.45" x2="2066.39" y2="827.45" xlink:href="#linear-gradient-7"/><linearGradient id="linear-gradient-9" x1="2062.78" y1="848.15" x2="2065.85" y2="848.15" xlink:href="#linear-gradient-7"/><linearGradient id="linear-gradient-10" x1="2059.81" y1="868.71" x2="2063.6" y2="868.71" xlink:href="#linear-gradient-7"/><linearGradient id="linear-gradient-11" x1="2055.2" y1="888.99" x2="2059.69" y2="888.99" xlink:href="#linear-gradient-7"/><linearGradient id="linear-gradient-12" x1="2049.02" y1="908.87" x2="2054.19" y2="908.87" xlink:href="#linear-gradient-7"/><linearGradient id="linear-gradient-13" x1="2041.34" y1="928.26" x2="2047.16" y2="928.26" xlink:href="#linear-gradient-7"/><linearGradient id="linear-gradient-14" x1="2032.23" y1="947.03" x2="2038.69" y2="947.03" xlink:href="#linear-gradient-7"/><linearGradient id="linear-gradient-15" x1="2021.75" y1="965.09" x2="2028.83" y2="965.09" xlink:href="#linear-gradient-7"/><linearGradient id="linear-gradient-16" x1="2009.97" y1="982.34" x2="2017.65" y2="982.34" xlink:href="#linear-gradient-7"/><linearGradient id="linear-gradient-17" x1="1996.94" y1="998.7" x2="2005.21" y2="998.7" xlink:href="#linear-gradient-7"/><linearGradient id="linear-gradient-18" x1="1982.72" y1="1014.04" x2="1991.56" y2="1014.04" xlink:href="#linear-gradient-7"/><linearGradient id="linear-gradient-19" x1="1967.37" y1="1028.27" x2="1976.76" y2="1028.27" xlink:href="#linear-gradient-7"/><linearGradient id="linear-gradient-20" x1="1950.97" y1="1041.27" x2="1960.88" y2="1041.27" xlink:href="#linear-gradient-7"/><linearGradient id="linear-gradient-21" x1="1933.61" y1="1052.9" x2="1943.99" y2="1052.9" xlink:href="#linear-gradient-7"/><linearGradient id="linear-gradient-22" x1="1915.37" y1="1063.08" x2="1926.13" y2="1063.08" xlink:href="#linear-gradient-7"/><linearGradient id="linear-gradient-23" x1="1896.34" y1="1071.65" x2="1907.45" y2="1071.65" xlink:href="#linear-gradient-7"/><linearGradient id="linear-gradient-24" x1="1876.67" y1="1078.61" x2="1888.07" y2="1078.61" xlink:href="#linear-gradient-7"/><linearGradient id="linear-gradient-25" x1="1856.54" y1="1084.01" x2="1868.19" y2="1084.01" xlink:href="#linear-gradient-7"/><linearGradient id="linear-gradient-26" x1="1836.08" y1="1087.86" x2="1847.93" y2="1087.86" xlink:href="#linear-gradient-7"/><linearGradient id="linear-gradient-27" x1="1815.41" y1="1090.22" x2="1827.43" y2="1090.22" xlink:href="#linear-gradient-7"/><linearGradient id="linear-gradient-28" x1="1794.64" y1="1091.14" x2="1806.79" y2="1091.14" xlink:href="#linear-gradient-7"/><linearGradient id="linear-gradient-29" x1="1773.86" y1="1090.67" x2="1786.13" y2="1090.67" xlink:href="#linear-gradient-7"/><linearGradient id="linear-gradient-30" x1="1753.17" y1="1088.93" x2="1765.52" y2="1088.93" xlink:href="#linear-gradient-7"/><linearGradient id="linear-gradient-31" x1="1732.62" y1="1085.97" x2="1745.04" y2="1085.97" xlink:href="#linear-gradient-7"/><linearGradient id="linear-gradient-32" x1="1712.29" y1="1081.86" x2="1724.75" y2="1081.86" xlink:href="#linear-gradient-7"/><linearGradient id="linear-gradient-33" x1="1692.19" y1="1076.67" x2="1704.71" y2="1076.67" xlink:href="#linear-gradient-7"/><linearGradient id="linear-gradient-34" x1="1672.41" y1="1070.45" x2="1684.94" y2="1070.45" xlink:href="#linear-gradient-7"/><linearGradient id="linear-gradient-35" x1="1652.96" y1="1063.25" x2="1665.51" y2="1063.25" xlink:href="#linear-gradient-7"/><linearGradient id="linear-gradient-36" x1="1633.89" y1="1055.13" x2="1646.44" y2="1055.13" xlink:href="#linear-gradient-7"/><linearGradient id="linear-gradient-37" x1="1615.22" y1="1046.12" x2="1627.76" y2="1046.12" xlink:href="#linear-gradient-7"/><linearGradient id="linear-gradient-38" x1="1597.05" y1="1036.26" x2="1609.5" y2="1036.26" xlink:href="#linear-gradient-7"/><linearGradient id="linear-gradient-39" x1="1579.28" y1="1025.66" x2="1591.66" y2="1025.66" xlink:href="#linear-gradient-7"/><linearGradient id="linear-gradient-40" x1="1561.93" y1="1014.38" x2="1574.22" y2="1014.38" xlink:href="#linear-gradient-7"/><linearGradient id="linear-gradient-41" x1="1544.98" y1="1002.51" x2="1557.19" y2="1002.51" xlink:href="#linear-gradient-7"/><linearGradient id="linear-gradient-42" x1="1528.43" y1="990.09" x2="1540.55" y2="990.09" xlink:href="#linear-gradient-7"/><linearGradient id="linear-gradient-43" x1="1512.24" y1="977.18" x2="1524.29" y2="977.18" xlink:href="#linear-gradient-7"/><linearGradient id="linear-gradient-44" x1="1496.41" y1="963.85" x2="1508.39" y2="963.85" xlink:href="#linear-gradient-7"/><linearGradient id="linear-gradient-45" x1="1480.9" y1="950.13" x2="1492.82" y2="950.13" xlink:href="#linear-gradient-7"/><linearGradient id="linear-gradient-46" x1="1465.68" y1="936.08" x2="1477.56" y2="936.08" xlink:href="#linear-gradient-7"/><linearGradient id="linear-gradient-47" x1="1450.73" y1="921.75" x2="1462.57" y2="921.75" xlink:href="#linear-gradient-7"/><linearGradient id="linear-gradient-48" x1="1435.99" y1="907.17" x2="1447.81" y2="907.17" xlink:href="#linear-gradient-7"/><linearGradient id="linear-gradient-49" x1="1421.45" y1="892.4" x2="1433.25" y2="892.4" xlink:href="#linear-gradient-7"/><linearGradient id="linear-gradient-50" x1="1407.07" y1="877.46" x2="1418.87" y2="877.46" xlink:href="#linear-gradient-7"/><linearGradient id="linear-gradient-51" x1="1392.81" y1="862.4" x2="1404.61" y2="862.4" xlink:href="#linear-gradient-7"/><linearGradient id="linear-gradient-52" x1="1378.64" y1="847.25" x2="1390.46" y2="847.25" xlink:href="#linear-gradient-7"/><linearGradient id="linear-gradient-53" x1="1364.51" y1="832.05" x2="1376.36" y2="832.05" xlink:href="#linear-gradient-7"/><linearGradient id="linear-gradient-54" x1="1350.39" y1="816.85" x2="1362.28" y2="816.85" xlink:href="#linear-gradient-7"/><linearGradient id="linear-gradient-55" x1="1336.23" y1="801.69" x2="1348.17" y2="801.69" xlink:href="#linear-gradient-7"/><linearGradient id="linear-gradient-56" x1="1321.99" y1="786.59" x2="1334" y2="786.59" xlink:href="#linear-gradient-7"/><linearGradient id="linear-gradient-57" x1="1307.64" y1="771.59" x2="1319.73" y2="771.59" xlink:href="#linear-gradient-7"/><linearGradient id="linear-gradient-58" x1="1293.13" y1="756.74" x2="1305.32" y2="756.74" xlink:href="#linear-gradient-7"/><linearGradient id="linear-gradient-59" x1="1278.43" y1="742.07" x2="1290.72" y2="742.07" xlink:href="#linear-gradient-7"/><linearGradient id="linear-gradient-60" x1="1263.51" y1="727.62" x2="1275.91" y2="727.62" xlink:href="#linear-gradient-7"/><linearGradient id="linear-gradient-61" x1="1248.36" y1="713.45" x2="1260.84" y2="713.45" xlink:href="#linear-gradient-7"/><linearGradient id="linear-gradient-62" x1="1232.92" y1="699.58" x2="1245.45" y2="699.58" xlink:href="#linear-gradient-7"/><linearGradient id="linear-gradient-63" x1="1217.16" y1="686.07" x2="1229.76" y2="686.07" xlink:href="#linear-gradient-7"/><linearGradient id="linear-gradient-64" x1="1201.06" y1="672.98" x2="1213.75" y2="672.98" xlink:href="#linear-gradient-7"/><linearGradient id="linear-gradient-65" x1="1184.59" y1="660.35" x2="1197.36" y2="660.35" xlink:href="#linear-gradient-7"/><linearGradient id="linear-gradient-66" x1="1167.73" y1="648.25" x2="1180.59" y2="648.25" xlink:href="#linear-gradient-7"/><linearGradient id="linear-gradient-67" x1="1150.46" y1="636.71" x2="1163.42" y2="636.71" xlink:href="#linear-gradient-7"/><linearGradient id="linear-gradient-68" x1="1132.78" y1="625.8" x2="1145.83" y2="625.8" xlink:href="#linear-gradient-7"/><linearGradient id="linear-gradient-69" x1="1114.72" y1="615.56" x2="1127.85" y2="615.56" xlink:href="#linear-gradient-7"/><linearGradient id="linear-gradient-70" x1="1096.3" y1="605.99" x2="1109.51" y2="605.99" xlink:href="#linear-gradient-7"/><linearGradient id="linear-gradient-71" x1="1077.55" y1="597.08" x2="1090.82" y2="597.08" xlink:href="#linear-gradient-7"/><linearGradient id="linear-gradient-72" x1="1058.5" y1="588.86" x2="1071.83" y2="588.86" xlink:href="#linear-gradient-7"/><linearGradient id="linear-gradient-73" x1="1039.17" y1="581.32" x2="1052.55" y2="581.32" xlink:href="#linear-gradient-7"/><linearGradient id="linear-gradient-74" x1="1019.58" y1="574.46" x2="1033.01" y2="574.46" xlink:href="#linear-gradient-7"/><linearGradient id="linear-gradient-75" x1="999.76" y1="568.31" x2="1013.23" y2="568.31" xlink:href="#linear-gradient-7"/><linearGradient id="linear-gradient-76" x1="979.75" y1="562.85" x2="993.24" y2="562.85" xlink:href="#linear-gradient-7"/><linearGradient id="linear-gradient-77" x1="959.55" y1="558.1" x2="973.06" y2="558.1" xlink:href="#linear-gradient-7"/><linearGradient id="linear-gradient-78" x1="939.21" y1="554.06" x2="952.73" y2="554.06" xlink:href="#linear-gradient-7"/><linearGradient id="linear-gradient-79" x1="918.74" y1="550.74" x2="932.27" y2="550.74" xlink:href="#linear-gradient-7"/><linearGradient id="linear-gradient-80" x1="898.17" y1="548.14" x2="911.7" y2="548.14" xlink:href="#linear-gradient-7"/><linearGradient id="linear-gradient-81" x1="877.53" y1="546.27" x2="891.04" y2="546.27" xlink:href="#linear-gradient-7"/><linearGradient id="linear-gradient-82" x1="856.84" y1="545.13" x2="870.33" y2="545.13" xlink:href="#linear-gradient-7"/><linearGradient id="linear-gradient-83" x1="836.13" y1="544.73" x2="849.6" y2="544.73" xlink:href="#linear-gradient-7"/><linearGradient id="linear-gradient-84" x1="815.42" y1="545.08" x2="828.86" y2="545.08" xlink:href="#linear-gradient-7"/><linearGradient id="linear-gradient-85" x1="794.75" y1="546.18" x2="808.14" y2="546.18" xlink:href="#linear-gradient-7"/><linearGradient id="linear-gradient-86" x1="774.13" y1="548.03" x2="787.47" y2="548.03" xlink:href="#linear-gradient-7"/><linearGradient id="linear-gradient-87" x1="753.6" y1="550.65" x2="766.88" y2="550.65" xlink:href="#linear-gradient-7"/><linearGradient id="linear-gradient-88" x1="733.18" y1="554.06" x2="746.4" y2="554.06" xlink:href="#linear-gradient-7"/><linearGradient id="linear-gradient-89" x1="712.94" y1="558.34" x2="726.07" y2="558.34" xlink:href="#linear-gradient-7"/><linearGradient id="linear-gradient-90" x1="692.93" y1="563.52" x2="705.96" y2="563.52" xlink:href="#linear-gradient-7"/><linearGradient id="linear-gradient-91" x1="673.22" y1="569.67" x2="686.09" y2="569.67" xlink:href="#linear-gradient-7"/><linearGradient id="linear-gradient-92" x1="653.88" y1="576.85" x2="666.54" y2="576.85" xlink:href="#linear-gradient-7"/><linearGradient id="linear-gradient-93" x1="635" y1="585.13" x2="647.42" y2="585.13" xlink:href="#linear-gradient-7"/><linearGradient id="linear-gradient-94" x1="616.68" y1="594.57" x2="628.83" y2="594.57" xlink:href="#linear-gradient-7"/><linearGradient id="linear-gradient-95" x1="599.06" y1="605.22" x2="610.9" y2="605.22" xlink:href="#linear-gradient-7"/><linearGradient id="linear-gradient-96" x1="582.29" y1="617.15" x2="593.77" y2="617.15" xlink:href="#linear-gradient-7"/><linearGradient id="linear-gradient-97" x1="566.55" y1="630.38" x2="577.6" y2="630.38" xlink:href="#linear-gradient-7"/><linearGradient id="linear-gradient-98" x1="552" y1="644.91" x2="562.58" y2="644.91" xlink:href="#linear-gradient-7"/><linearGradient id="linear-gradient-99" x1="538.84" y1="660.69" x2="548.89" y2="660.69" xlink:href="#linear-gradient-7"/><linearGradient id="linear-gradient-100" x1="527.35" y1="677.72" x2="536.77" y2="677.72" xlink:href="#linear-gradient-7"/><linearGradient id="linear-gradient-101" x1="517.61" y1="695.84" x2="526.41" y2="695.84" xlink:href="#linear-gradient-7"/><linearGradient id="linear-gradient-102" x1="509.65" y1="714.84" x2="517.82" y2="714.84" xlink:href="#linear-gradient-7"/><linearGradient id="linear-gradient-103" x1="503.49" y1="734.52" x2="511.01" y2="734.52" xlink:href="#linear-gradient-7"/><linearGradient id="linear-gradient-104" x1="499.1" y1="754.69" x2="505.99" y2="754.69" xlink:href="#linear-gradient-7"/><linearGradient id="linear-gradient-105" x1="496.47" y1="775.21" x2="502.74" y2="775.21" xlink:href="#linear-gradient-7"/><linearGradient id="linear-gradient-106" x1="495.59" y1="795.9" x2="501.24" y2="795.9" xlink:href="#linear-gradient-7"/><linearGradient id="linear-gradient-107" x1="496" y1="816.62" x2="501.89" y2="816.62" xlink:href="#linear-gradient-7"/><linearGradient id="linear-gradient-108" x1="498.07" y1="837.22" x2="504.39" y2="837.22" xlink:href="#linear-gradient-7"/><linearGradient id="linear-gradient-109" x1="501.87" y1="857.55" x2="508.63" y2="857.55" xlink:href="#linear-gradient-7"/><linearGradient id="linear-gradient-110" x1="507.41" y1="877.46" x2="514.61" y2="877.46" xlink:href="#linear-gradient-7"/><linearGradient id="linear-gradient-111" x1="514.69" y1="896.76" x2="522.32" y2="896.76" xlink:href="#linear-gradient-7"/><linearGradient id="linear-gradient-112" x1="523.71" y1="915.31" x2="531.78" y2="915.31" xlink:href="#linear-gradient-7"/><linearGradient id="linear-gradient-113" x1="534.48" y1="932.88" x2="542.92" y2="932.88" xlink:href="#linear-gradient-7"/><linearGradient id="linear-gradient-114" x1="546.97" y1="949.29" x2="555.74" y2="949.29" xlink:href="#linear-gradient-7"/><linearGradient id="linear-gradient-115" x1="561.07" y1="964.33" x2="570.16" y2="964.33" xlink:href="#linear-gradient-7"/><linearGradient id="linear-gradient-116" x1="576.66" y1="977.84" x2="585.99" y2="977.84" xlink:href="#linear-gradient-7"/><linearGradient id="linear-gradient-117" x1="593.54" y1="989.75" x2="603.04" y2="989.75" xlink:href="#linear-gradient-7"/><linearGradient id="linear-gradient-118" x1="611.49" y1="999.99" x2="621.12" y2="999.99" xlink:href="#linear-gradient-7"/><linearGradient id="linear-gradient-119" x1="630.33" y1="1008.55" x2="640.02" y2="1008.55" xlink:href="#linear-gradient-7"/><linearGradient id="linear-gradient-120" x1="649.87" y1="1015.41" x2="659.58" y2="1015.41" xlink:href="#linear-gradient-7"/><linearGradient id="linear-gradient-121" x1="669.96" y1="1020.57" x2="679.64" y2="1020.57" xlink:href="#linear-gradient-7"/><linearGradient id="linear-gradient-122" x1="690.44" y1="1024.01" x2="700.04" y2="1024.01" xlink:href="#linear-gradient-7"/><linearGradient id="linear-gradient-123" x1="711.15" y1="1025.73" x2="720.63" y2="1025.73" xlink:href="#linear-gradient-7"/><linearGradient id="linear-gradient-124" x1="731.96" y1="1025.73" x2="741.27" y2="1025.73" xlink:href="#linear-gradient-7"/><linearGradient id="linear-gradient-125" x1="752.71" y1="1023.95" x2="761.82" y2="1023.95" xlink:href="#linear-gradient-7"/><linearGradient id="linear-gradient-126" x1="773.27" y1="1020.37" x2="782.12" y2="1020.37" xlink:href="#linear-gradient-7"/><linearGradient id="linear-gradient-127" x1="793.44" y1="1014.98" x2="801.96" y2="1014.98" xlink:href="#linear-gradient-7"/><linearGradient id="linear-gradient-128" x1="813.04" y1="1007.76" x2="821.2" y2="1007.76" xlink:href="#linear-gradient-7"/><linearGradient id="linear-gradient-129" x1="831.89" y1="998.69" x2="839.62" y2="998.69" xlink:href="#linear-gradient-7"/><linearGradient id="linear-gradient-130" x1="849.77" y1="988.2" x2="855.9" y2="988.2" xlink:href="#linear-gradient-7"/><linearGradient id="linear-gradient-131" x1="-5751.19" y1="1198.18" x2="-5459.37" y2="1198.18" gradientTransform="translate(-4875.8 -93.23) rotate(-178.73) scale(1 -1)" gradientUnits="userSpaceOnUse"><stop offset="0" stop-color="#2b3582"/><stop offset="1" stop-color="#150e42"/></linearGradient><linearGradient id="linear-gradient-132" x1="-5529.95" y1="1082.18" x2="-6130.99" y2="1851.05" gradientTransform="translate(-4875.8 -93.23) rotate(-178.73) scale(1 -1)" xlink:href="#linear-gradient-5"/><linearGradient id="linear-gradient-133" x1="699.69" y1="1027.82" x2="704.34" y2="1347.01" gradientTransform="translate(1063.13 -141.51) rotate(45)" xlink:href="#linear-gradient-5"/></defs><g class="cls-34"><g id="Illustration"><g><g><path class="cls-67" d="M168,784.36c25.38,44.91,65.72,82.68,96.8,124.67,89.81,121.34-3.63,263.33,37.36,394.14,35.71,113.97,184.24,144.53,292.81,149.15,182.95,7.79,365.69-3.88,542.07-53.5,122.4-34.43,244.95-79.51,373.96-82.24,131.88-2.79,255.94,50.16,383.35,75.2,139.9,27.49,307.23-2.36,340.96-158.59,20.9-96.79-35.36-185.92-40.62-281.22-6.97-126.16,118.8-195.39,135.07-313.33,10.26-74.36-28.08-140.8-78.1-194.6-52.77-56.76-123.75-106.92-205.17-111.58-85.11-4.87-161.07,39.82-240.62,61.15-223.55,59.95-350.44-140-556.16-167.9-92.78-12.58-206.8-6.61-291.04,36.58-78.33,40.16-116.34,129.38-204.21,155.57-93,27.73-178.1-27.69-266.47-45.39-91.46-18.32-177.96,14.2-235.21,85.52-55.5,69.15-115.56,160.23-108.67,251.53,2.09,27.73,11.09,52.18,23.89,74.82Z"/><path class="cls-39" d="M2307.94,742.13c-24.39,46.7-63.16,85.97-93.03,129.64-86.31,126.17,3.49,273.82-35.9,409.83-34.32,118.51-177.06,150.28-281.4,155.09-175.82,8.1-351.44-4.04-520.95-55.63-117.63-35.8-235.41-82.68-359.39-85.51-126.74-2.9-245.97,52.16-368.41,78.19-134.45,28.59-295.26-2.46-327.68-164.91-20.08-100.64,33.98-193.33,39.04-292.41,6.7-131.18-114.17-203.17-129.81-325.81-9.86-77.32,26.98-146.41,75.05-202.35,50.72-59.03,118.92-111.18,197.18-116.02,81.8-5.07,154.8,41.4,231.24,63.59,214.83,62.34,336.78-145.57,534.49-174.58,89.16-13.08,198.74-6.87,279.7,38.04,75.28,41.76,111.81,134.53,196.25,161.77,89.37,28.83,171.15-28.79,256.08-47.2,87.89-19.05,171.03,14.77,226.04,88.92,53.34,71.9,111.05,166.61,104.43,261.55-2.01,28.83-10.66,54.26-22.95,77.8Z"/></g><g><path class="cls-115" d="M648.76,759.54v598.34c0,44.03,38.67,79.72,86.38,79.72h1004.71c47.71,0,86.38-35.69,86.38-79.72V759.54H648.76Z"/><path class="cls-129" d="M1532.48,581.39l-255.38-154.53c-24.84-15.03-54.35-15.03-79.2,0l-255.38,154.48-294.98,178.44,294.98,177.99,294.98,177.99,294.98-178.19,294.98-177.8-294.98-178.39Z"/><g class="cls-49"><path class="cls-4" d="M671.83,1411.74c-.49,0-.98-.17-1.37-.52-.85-.76-.93-2.06-.17-2.92l367.91-413.93c.76-.85,2.06-.93,2.92-.17,.85,.76,.93,2.06,.17,2.92l-367.91,413.93c-.41,.46-.97,.69-1.54,.69Z"/><path class="cls-4" d="M1803.17,1411.74c-.57,0-1.14-.23-1.54-.69l-367.91-413.93c-.76-.85-.68-2.16,.17-2.92,.85-.76,2.16-.68,2.92,.17l367.91,413.93c.76,.85,.68,2.16-.17,2.92-.39,.35-.88,.52-1.37,.52Z"/></g></g><g class="cls-94"><g><g><path class="cls-4" d="M1603.77,470H779.57c-14.54,0-26.57,12.61-26.57,27.14v668.86h969V590.11l-118.23-120.11Z"/><path class="cls-86" d="M1721.54,590.11l-108.15,.93c-2.87,.03-5.11-1.09-7.15-3.11-2.04-2.03-2.24-4.78-2.24-7.64v-109.47l117.54,119.28Z"/></g><path class="cls-31" d="M1451.27,824.29c0,25.14-4.02,48.15-12.05,69.02-8.03,20.87-19.38,37.24-34.05,49.11s-31.69,17.81-51.08,17.81c-12.92,0-24.36-3.1-34.31-9.3-9.95-6.2-17.11-14.36-21.48-24.49h-4.19c-18.86,22.53-42.87,33.79-72.03,33.79-30.91,0-55.27-9.3-73.08-27.9-17.81-18.6-26.72-44.05-26.72-76.35,0-36.84,11.7-66.53,35.1-89.06,23.4-22.53,53.96-33.79,91.67-33.79,15.02,0,31.56,1.44,49.64,4.32,18.07,2.88,32.96,6.33,44.66,10.35l-6.02,128.08c0,24.27,6.64,36.41,19.91,36.41,11.18,0,20.08-8.16,26.72-24.49,6.64-16.33,9.95-37.67,9.95-64.04,0-28.11-5.85-52.95-17.55-74.52-11.7-21.57-28.16-38.02-49.37-49.37-21.22-11.35-45.44-17.03-72.68-17.03-35.27,0-65.92,7.25-91.94,21.74-26.02,14.49-45.97,35.4-59.85,62.73-13.88,27.33-20.82,58.89-20.82,94.69,0,48.19,12.88,85.17,38.63,110.93,25.76,25.76,63.08,38.63,111.97,38.63,18.51,0,38.85-2.05,61.03-6.16,22.18-4.1,44-10.08,65.48-17.94v50.29c-37.37,15.89-78.84,23.84-124.42,23.84-66.35,0-118.09-17.46-155.19-52.39-37.11-34.92-55.66-83.47-55.66-145.63,0-43.13,9.47-82.29,28.42-117.47,18.95-35.19,45.92-62.77,80.94-82.77s75.3-29.99,120.88-29.99c38.42,0,72.73,7.86,102.94,23.57,30.21,15.72,53.52,38.07,69.93,67.05,16.41,28.99,24.62,62.43,24.62,100.32Zm-268.21,32.74c0,36.84,15.02,55.27,45.05,55.27,15.72,0,27.68-5.54,35.88-16.63,8.21-11.09,13.18-29.12,14.93-54.09l3.41-57.89c-8.91-1.92-18.95-2.88-30.12-2.88-21.83,0-38.81,6.81-50.94,20.43-12.14,13.62-18.2,32.22-18.2,55.79Z"/></g></g><g><path class="cls-4" d="M1849.66,589.52c-1.18-101.6,80.53-185.21,182.13-186.39,37.47-.43,73.61,10.32,104.62,31.12l10.48-10.62c1.35-1.37,3.34-1.91,5.2-1.43,1.86,.48,3.33,1.93,3.84,3.79l18.32,66.6c.51,1.85-.01,3.85-1.36,5.22-1.35,1.37-3.34,1.91-5.2,1.43l-66.84-17.43c-1.86-.48-3.33-1.94-3.84-3.79-.51-1.86,0-3.86,1.36-5.23l11.8-11.98c-23.5-14.21-50.4-21.54-77.97-21.22-81.46,.94-146.97,67.94-146.02,149.36,.94,81.37,67.98,146.8,149.44,145.86,38.8-.45,75.33-15.93,102.84-43.6,27.45-27.61,42.79-64.15,43.19-102.89,.03-2.81,2.22-5.96,5.32-6l25.75-.3c1.66-.02,2.86,1.21,3.66,2.02l.21,.21c1.19,1.18,1.61,3.35,1.6,4.53-.35,48.42-19.41,94.06-53.67,128.51-34.31,34.5-79.93,53.81-128.46,54.38-101.6,1.18-185.22-80.53-186.39-182.13Zm320.79-95.53c0-.12-.02-.24-.05-.35l-18.32-66.6c-.13-.48-.51-.86-1-.98-.48-.13-1,.02-1.35,.37l-12.82,12.99-1.38-.94c-30.64-20.95-66.5-31.79-103.7-31.36-99.4,1.15-179.33,82.95-178.18,182.35,1.15,99.4,82.95,179.33,182.35,178.18,47.48-.55,92.11-19.44,125.68-53.2,33.52-33.71,52.17-78.37,52.51-125.73h0c.04-.59-.25-1.46-.44-1.69l-.22-.22c-.24-.24-.67-.68-.91-.82l-25.61,.3c-.55,0-1.37,1.09-1.38,2.05-.41,39.79-16.16,77.31-44.35,105.66-28.25,28.42-65.76,44.32-105.62,44.78-83.66,.97-152.51-66.23-153.48-149.8-.97-83.61,66.31-152.43,149.97-153.39,29.16-.34,57.61,7.66,82.25,23.14l2.1,1.32-15.3,15.53c-.35,.36-.49,.88-.35,1.37,.13,.49,.51,.86,1,.99l66.84,17.43c.48,.13,1-.02,1.35-.37,.26-.27,.41-.63,.4-1Z"/><g><path class="cls-4" d="M1977.62,623.64h-53.1v-11.17l19.07-19.27c5.65-5.78,9.33-9.79,11.07-12.03,1.73-2.23,2.98-4.3,3.74-6.21,.76-1.9,1.14-3.88,1.14-5.92,0-3.05-.84-5.32-2.52-6.81-1.68-1.49-3.92-2.23-6.73-2.23-2.94,0-5.8,.67-8.57,2.03-2.77,1.35-5.66,3.27-8.68,5.77l-8.73-10.34c3.74-3.19,6.84-5.44,9.3-6.75,2.46-1.32,5.14-2.33,8.05-3.04,2.91-.71,6.16-1.07,9.77-1.07,4.75,0,8.94,.87,12.57,2.6,3.64,1.73,6.46,4.16,8.47,7.27,2.01,3.12,3.01,6.68,3.01,10.7,0,3.5-.62,6.78-1.84,9.84-1.23,3.07-3.13,6.21-5.72,9.43-2.58,3.22-7.13,7.81-13.64,13.77l-9.77,9.2v.73h33.09v13.51Z"/><path class="cls-4" d="M2040.07,607.9h-9.14v15.74h-15.69v-15.74h-32.42v-11.17l33.3-49.04h14.81v47.74h9.14v12.47Zm-24.83-12.47v-12.88c0-2.15,.09-5.26,.26-9.35,.17-4.09,.31-6.46,.42-7.12h-.42c-1.28,2.84-2.82,5.61-4.62,8.31l-13.92,21.04h18.29Z"/><path class="cls-4" d="M2085.17,547.68l-28.31,75.96h-14.39l28.31-75.96h14.39Z"/><path class="cls-4" d="M2097.48,623.64l28.52-62.34h-37.46v-13.51h54.5v10.08l-28.73,65.77h-16.83Z"/></g></g><g><path class="cls-102" d="M2063.02,803.73l.51,6.17v.03c.05,.59,.57,1.03,1.15,.98,.59-.05,1.03-.56,.98-1.15h0l-.58-6.23c-.05-.57-.56-.99-1.13-.94-.57,.05-.98,.55-.94,1.12v.03Z"/><path class="cls-132" d="M2064.07,824.33l-.03,6.19v.03c0,.65,.52,1.18,1.17,1.18,.65,0,1.18-.52,1.18-1.17h0l-.03-6.26c0-.63-.52-1.14-1.15-1.14-.63,0-1.13,.51-1.14,1.14v.03Z"/><path class="cls-109" d="M2063.35,844.94l-.56,6.16v.03c-.07,.7,.45,1.33,1.16,1.39,.7,.06,1.33-.46,1.39-1.16h0l.5-6.24c.06-.69-.46-1.29-1.15-1.35-.68-.05-1.28,.45-1.34,1.13v.03Z"/><path class="cls-59" d="M2060.9,865.42l-1.06,6.09v.03c-.14,.76,.37,1.47,1.12,1.61,.76,.13,1.47-.37,1.6-1.13h0l1.01-6.18c.12-.74-.38-1.44-1.12-1.56-.73-.12-1.43,.37-1.55,1.11v.03Z"/><path class="cls-47" d="M2056.8,885.62l-1.54,5.98v.03c-.21,.8,.27,1.61,1.07,1.82,.8,.21,1.61-.28,1.82-1.07v-.02l1.5-6.06c.19-.78-.29-1.58-1.07-1.77-.78-.19-1.57,.28-1.77,1.05v.03Z"/><path class="cls-138" d="M2051.12,905.42l-2,5.85v.03c-.3,.84,.15,1.75,.98,2.03,.84,.29,1.75-.16,2.03-1v-.02l1.97-5.94c.27-.82-.17-1.71-1-1.98-.82-.27-1.7,.17-1.98,.98v.04Z"/><path class="cls-139" d="M2043.93,924.73l-2.44,5.68-.02,.04c-.37,.87,.03,1.87,.89,2.24,.87,.37,1.87-.03,2.24-.89v-.02l2.42-5.78c.36-.85-.05-1.83-.9-2.19-.85-.35-1.82,.04-2.18,.88l-.02,.04Z"/><path class="cls-27" d="M2035.31,943.44l-2.86,5.48-.02,.04c-.46,.89-.12,1.98,.77,2.45,.89,.46,1.98,.12,2.45-.77v-.02l2.85-5.58c.45-.88,.1-1.95-.78-2.4-.87-.44-1.94-.1-2.39,.76l-.02,.04Z"/><path class="cls-17" d="M2025.32,961.44l-3.25,5.25-.02,.04c-.56,.9-.28,2.09,.62,2.64,.9,.56,2.09,.28,2.64-.62v-.02l3.25-5.35c.54-.89,.26-2.05-.64-2.59-.89-.54-2.04-.26-2.58,.62l-.02,.04Z"/><path class="cls-65" d="M2014.02,978.65l-3.63,4.99-.03,.04c-.66,.9-.46,2.17,.45,2.83,.9,.66,2.17,.46,2.83-.45v-.02l3.65-5.1c.64-.9,.43-2.14-.47-2.78-.89-.63-2.13-.43-2.77,.45l-.03,.04Z"/><path class="cls-8" d="M2001.48,994.96l-4,4.7-.03,.04c-.76,.9-.65,2.24,.24,3.01,.9,.76,2.24,.65,3.01-.24v-.02l4.02-4.82c.74-.89,.62-2.22-.27-2.96-.89-.74-2.2-.62-2.94,.25l-.03,.04Z"/><path class="cls-21" d="M1987.75,1010.27l-4.34,4.39-.04,.04c-.87,.88-.86,2.3,.02,3.17,.88,.87,2.3,.86,3.17-.02l.02-.02,4.37-4.51c.85-.87,.83-2.27-.05-3.12-.87-.84-2.25-.83-3.1,.03l-.04,.04Z"/><path class="cls-127" d="M1972.89,1024.48l-4.66,4.03-.04,.04c-.98,.85-1.09,2.33-.24,3.31,.85,.98,2.33,1.09,3.31,.24l.02-.02,4.7-4.15c.96-.85,1.05-2.31,.2-3.27-.84-.95-2.29-1.05-3.25-.22l-.04,.04Z"/><path class="cls-30" d="M1956.98,1037.47l-4.96,3.64-.05,.04c-1.09,.8-1.33,2.34-.53,3.43,.8,1.09,2.34,1.33,3.43,.53l.02-.02,5.02-3.76c1.07-.8,1.29-2.32,.49-3.39-.8-1.06-2.3-1.28-3.37-.5l-.05,.04Z"/><path class="cls-81" d="M1940.1,1049.13l-5.24,3.23-.05,.03c-1.19,.73-1.56,2.29-.83,3.48,.73,1.19,2.29,1.56,3.48,.83h.01l5.33-3.34c1.18-.73,1.53-2.28,.8-3.46-.73-1.17-2.27-1.53-3.45-.81l-.05,.03Z"/><path class="cls-111" d="M1922.33,1059.38l-5.48,2.77-.06,.03c-1.28,.64-1.79,2.2-1.14,3.48,.64,1.28,2.2,1.79,3.48,1.14h.01l5.59-2.87c1.26-.65,1.76-2.2,1.12-3.46-.65-1.26-2.19-1.76-3.45-1.12l-.06,.03Z"/><path class="cls-126" d="M1903.78,1068.05l-5.71,2.28-.06,.03c-1.36,.54-2.02,2.08-1.48,3.44,.54,1.36,2.09,2.02,3.44,1.48h.01l5.83-2.37c1.35-.55,1.99-2.08,1.45-3.43-.55-1.34-2.07-1.99-3.41-1.45l-.07,.03Z"/><path class="cls-105" d="M1884.53,1075.12l-5.88,1.82-.06,.02c-1.43,.44-2.23,1.96-1.79,3.39,.44,1.43,1.96,2.23,3.39,1.79h.01l5.99-1.89c1.42-.45,2.2-1.96,1.76-3.38-.45-1.41-1.95-2.2-3.36-1.76l-.06,.02Z"/><path class="cls-83" d="M1864.77,1080.63l-6,1.35h-.06c-1.49,.35-2.43,1.83-2.09,3.33,.34,1.49,1.82,2.43,3.31,2.09h.02l6.12-1.42c1.48-.34,2.4-1.82,2.06-3.3-.34-1.47-1.81-2.4-3.28-2.06h-.06Z"/><path class="cls-140" d="M1844.65,1084.61l-6.09,.9h-.06c-1.55,.24-2.61,1.68-2.38,3.22,.23,1.55,1.67,2.61,3.21,2.38h.02l6.21-.96c1.53-.24,2.59-1.67,2.35-3.21-.24-1.53-1.66-2.58-3.19-2.35h-.06Z"/><path class="cls-117" d="M1824.28,1087.1l-6.14,.46h-.06c-1.59,.13-2.78,1.51-2.66,3.1,.12,1.59,1.51,2.78,3.1,2.66h.02l6.26-.51c1.58-.13,2.76-1.51,2.63-3.09-.13-1.58-1.5-2.75-3.08-2.63h-.06Z"/><path class="cls-26" d="M1803.78,1088.16l-6.16,.05h-.06c-1.63,.01-2.94,1.34-2.93,2.97s1.34,2.94,2.97,2.93h.02l6.28-.09c1.62-.02,2.91-1.35,2.89-2.97-.02-1.61-1.34-2.9-2.95-2.89h-.06Z"/><path class="cls-123" d="M1783.25,1087.86l-6.15-.35h-.06c-1.66-.1-3.08,1.17-3.17,2.83-.09,1.66,1.18,3.08,2.83,3.17h.02l6.27,.32c1.65,.08,3.05-1.19,3.14-2.84,.08-1.64-1.18-3.04-2.82-3.14h-.06Z"/><path class="cls-124" d="M1762.77,1086.26l-6.12-.72h-.05c-1.68-.2-3.21,1-3.41,2.68-.2,1.68,1.01,3.21,2.69,3.41h.02l6.23,.7c1.67,.19,3.18-1.02,3.37-2.69,.19-1.67-1.01-3.17-2.67-3.37h-.06Z"/><path class="cls-68" d="M1742.42,1083.44l-6.07-1.07h-.05c-1.7-.31-3.32,.83-3.63,2.53-.3,1.7,.84,3.32,2.54,3.62h.02l6.18,1.06c1.69,.29,3.3-.85,3.59-2.54,.29-1.69-.84-3.29-2.52-3.59h-.05Z"/><path class="cls-44" d="M1722.25,1079.47l-6-1.4h-.05c-1.71-.41-3.43,.65-3.83,2.37-.4,1.71,.66,3.43,2.38,3.83h.02l6.11,1.4c1.71,.39,3.41-.68,3.8-2.39,.39-1.7-.67-3.39-2.37-3.79h-.05Z"/><path class="cls-120" d="M1702.33,1074.42l-5.93-1.72h-.05c-1.72-.51-3.52,.48-4.02,2.2s.49,3.52,2.22,4.02h.02l6.04,1.72c1.72,.49,3.5-.51,3.99-2.23,.49-1.71-.5-3.49-2.21-3.98h-.05Z"/><path class="cls-95" d="M1682.68,1068.34l-5.83-2.01-.05-.02c-1.73-.6-3.61,.32-4.21,2.05-.6,1.73,.32,3.61,2.05,4.21h.02l5.94,2.02c1.72,.58,3.59-.34,4.17-2.06,.58-1.71-.33-3.58-2.04-4.17l-.05-.02Z"/><path class="cls-42" d="M1663.36,1061.29l-5.73-2.3-.05-.02c-1.73-.69-3.69,.15-4.38,1.87-.69,1.73,.15,3.69,1.87,4.38h.02l5.83,2.31c1.72,.68,3.67-.17,4.35-1.89,.68-1.71-.16-3.65-1.87-4.34l-.05-.02Z"/><path class="cls-28" d="M1644.4,1053.32l-5.61-2.57-.04-.02c-1.72-.79-3.76-.03-4.54,1.69-.79,1.72-.03,3.76,1.69,4.54h.02l5.71,2.58c1.72,.77,3.74,0,4.51-1.71,.77-1.71,.01-3.72-1.69-4.5l-.05-.02Z"/><path class="cls-63" d="M1625.84,1044.45l-5.49-2.83-.04-.02c-1.71-.88-3.82-.21-4.7,1.5-.88,1.71-.21,3.82,1.5,4.7h.02l5.6,2.85c1.71,.87,3.8,.19,4.67-1.52,.87-1.7,.19-3.78-1.5-4.66l-.04-.02Z"/><path class="cls-121" d="M1607.7,1034.75l-5.36-3.06-.04-.02c-1.68-.96-3.83-.37-4.79,1.31-.96,1.68-.38,3.83,1.31,4.79h0l5.44,3.09c1.68,.96,3.82,.37,4.78-1.32,.96-1.68,.37-3.82-1.32-4.78l-.03-.02Z"/><path class="cls-56" d="M1589.96,1024.3l-5.24-3.27-.03-.02c-1.66-1.03-3.83-.53-4.87,1.13-1.03,1.65-.53,3.83,1.13,4.87h0l5.32,3.3c1.65,1.03,3.83,.52,4.85-1.14,1.03-1.65,.52-3.83-1.14-4.85l-.03-.02Z"/><path class="cls-23" d="M1572.62,1013.18l-5.12-3.46-.03-.02c-1.63-1.1-3.83-.67-4.93,.96-1.1,1.63-.67,3.83,.96,4.93h0l5.19,3.5c1.62,1.09,3.83,.66,4.92-.96,1.09-1.62,.66-3.83-.96-4.92l-.03-.02Z"/><path class="cls-78" d="M1555.69,1001.44l-5.01-3.63-.03-.02c-1.6-1.16-3.83-.8-4.99,.79s-.8,3.83,.79,4.99h0l5.07,3.67c1.6,1.15,3.82,.79,4.98-.8,1.15-1.6,.79-3.83-.8-4.98l-.02-.02Z"/><path class="cls-113" d="M1539.13,989.15l-4.89-3.79-.02-.02c-1.57-1.21-3.82-.93-5.04,.64-1.21,1.57-.93,3.82,.64,5.04h0l4.95,3.82c1.57,1.21,3.82,.92,5.03-.65,1.21-1.57,.92-3.82-.65-5.03l-.02-.02Z"/><path class="cls-14" d="M1522.95,976.36l-4.79-3.93-.02-.02c-1.54-1.27-3.82-1.04-5.08,.5-1.26,1.54-1.04,3.82,.5,5.08h0l4.84,3.96c1.54,1.26,3.81,1.03,5.07-.51,1.26-1.54,1.03-3.81-.51-5.07h-.02Z"/><path class="cls-134" d="M1507.12,963.13l-4.69-4.05-.02-.02c-1.52-1.31-3.81-1.14-5.12,.37-1.31,1.52-1.14,3.81,.37,5.12h0l4.73,4.08c1.52,1.31,3.81,1.13,5.11-.38,1.31-1.52,1.13-3.81-.38-5.11h-.01Z"/><path class="cls-91" d="M1491.61,949.5l-4.59-4.16-.02-.02c-1.5-1.35-3.8-1.24-5.16,.26-1.35,1.49-1.24,3.8,.26,5.16h0l4.64,4.18c1.5,1.35,3.8,1.23,5.15-.27,1.35-1.49,1.23-3.8-.27-5.15h-.01Z"/><path class="cls-137" d="M1476.39,935.54l-4.51-4.25h-.01c-1.48-1.4-3.8-1.33-5.19,.14-1.39,1.48-1.32,3.8,.16,5.19h0l4.55,4.27c1.48,1.38,3.79,1.31,5.18-.16,1.38-1.48,1.31-3.79-.17-5.18h0Z"/><path class="cls-136" d="M1461.45,921.28l-4.44-4.33h-.01c-1.46-1.44-3.8-1.41-5.22,.05-1.42,1.46-1.39,3.8,.06,5.22h0l4.47,4.35c1.46,1.42,3.79,1.38,5.21-.08,1.42-1.46,1.38-3.79-.08-5.21h0Z"/><path class="cls-43" d="M1446.72,906.76l-4.38-4.4h-.01c-1.45-1.46-3.79-1.47-5.25-.02s-1.46,3.79-.01,5.25h0l4.41,4.42c1.45,1.45,3.79,1.45,5.24,0,1.45-1.45,1.45-3.79,0-5.24h0Z"/><path class="cls-62" d="M1432.19,892.03l-4.33-4.46h0c-1.43-1.49-3.8-1.52-5.27-.09-1.48,1.44-1.51,3.8-.08,5.27h0l4.36,4.47c1.44,1.47,3.79,1.5,5.27,.07,1.47-1.44,1.5-3.79,.07-5.27h0Z"/><path class="cls-48" d="M1417.83,877.13l-4.29-4.5c-1.42-1.5-3.8-1.57-5.3-.14-1.5,1.42-1.57,3.8-.14,5.3h.01l4.31,4.52c1.43,1.49,3.8,1.55,5.29,.12,1.49-1.43,1.55-3.8,.12-5.29Z"/><path class="cls-3" d="M1403.59,862.09l-4.25-4.53c-1.42-1.52-3.81-1.6-5.33-.18-1.52,1.42-1.6,3.81-.18,5.33h0l4.27,4.55c1.42,1.51,3.81,1.58,5.32,.16,1.51-1.43,1.58-3.81,.16-5.32Z"/><path class="cls-25" d="M1389.44,846.95l-4.23-4.55c-1.42-1.53-3.82-1.62-5.35-.2-1.53,1.42-1.63,3.82-.2,5.35h0l4.25,4.56c1.42,1.53,3.82,1.61,5.35,.19,1.53-1.43,1.61-3.82,.19-5.34Z"/><path class="cls-33" d="M1375.35,831.75l-4.23-4.57c-1.43-1.54-3.84-1.64-5.38-.21-1.54,1.43-1.64,3.84-.21,5.38h0l4.24,4.57c1.43,1.54,3.84,1.63,5.37,.2,1.54-1.43,1.63-3.83,.2-5.37Z"/><path class="cls-90" d="M1361.26,816.53l-4.23-4.56c-1.44-1.55-3.86-1.64-5.41-.2-1.55,1.44-1.64,3.86-.2,5.41h0l4.24,4.56c1.44,1.55,3.86,1.63,5.4,.2,1.55-1.44,1.64-3.85,.2-5.4Z"/><path class="cls-93" d="M1347.14,801.34l-4.25-4.55c-1.45-1.55-3.89-1.64-5.44-.19-1.55,1.45-1.64,3.89-.19,5.44h0l4.25,4.54c1.45,1.55,3.88,1.63,5.43,.18,1.55-1.45,1.63-3.88,.18-5.43Z"/><path class="cls-22" d="M1332.95,786.2l-4.28-4.53c-1.47-1.55-3.92-1.62-5.47-.15-1.55,1.47-1.62,3.92-.15,5.47h.01l4.27,4.52c1.46,1.55,3.91,1.62,5.46,.16,1.55-1.46,1.62-3.91,.16-5.46Z"/><path class="cls-135" d="M1318.64,771.15l-4.32-4.49c-1.49-1.55-3.95-1.6-5.5-.11-1.55,1.49-1.6,3.95-.11,5.5h.01l4.31,4.48h0c1.49,1.55,3.95,1.6,5.49,.11,1.54-1.49,1.59-3.94,.1-5.48Z"/><path class="cls-18" d="M1304.19,756.23l-4.37-4.44c-1.51-1.54-3.99-1.56-5.53-.05-1.54,1.51-1.56,3.99-.05,5.53h0v.02l4.37,4.42h.01c1.51,1.54,3.98,1.56,5.52,.05,1.53-1.51,1.56-3.98,.04-5.51Z"/><path class="cls-60" d="M1289.56,741.48l-4.43-4.39c-1.54-1.53-4.03-1.51-5.55,.03-1.53,1.54-1.51,4.03,.03,5.55h0v.02l4.43,4.35h.01c1.54,1.53,4.03,1.52,5.55-.03,1.52-1.54,1.51-4.02-.03-5.54Z"/><path class="cls-36" d="M1274.69,726.93l-4.51-4.32c-1.57-1.51-4.07-1.45-5.58,.12-1.51,1.57-1.45,4.07,.12,5.58h0l.02,.02,4.48,4.28h.02c1.58,1.52,4.07,1.46,5.57-.12,1.5-1.58,1.45-4.07-.13-5.57Z"/><path class="cls-72" d="M1259.56,712.66l-4.6-4.23c-1.6-1.47-4.09-1.36-5.56,.24-1.47,1.6-1.36,4.09,.24,5.56h.01l4.56,4.21,.02,.02c1.6,1.47,4.09,1.37,5.57-.23,1.47-1.6,1.37-4.09-.23-5.57h0Z"/><path class="cls-76" d="M1244.12,698.69l-4.69-4.12c-1.63-1.43-4.1-1.27-5.53,.36-1.43,1.63-1.27,4.1,.36,5.53h.02l4.65,4.11,.02,.02c1.63,1.43,4.11,1.28,5.54-.35,1.43-1.63,1.28-4.11-.35-5.54h0Z"/><path class="cls-52" d="M1228.36,685.07l-4.79-4.01c-1.65-1.38-4.12-1.16-5.5,.49-1.38,1.65-1.16,4.12,.49,5.5l.02,.02,4.74,3.97,.02,.02c1.65,1.39,4.12,1.17,5.51-.48,1.39-1.65,1.17-4.12-.48-5.51h0Z"/><path class="cls-87" d="M1212.27,671.86l-4.9-3.87c-1.68-1.33-4.13-1.05-5.46,.64-1.33,1.69-1.05,4.13,.64,5.46l.02,.02,4.84,3.84,.03,.02c1.68,1.34,4.13,1.05,5.47-.63,1.34-1.68,1.05-4.13-.63-5.47h0Z"/><path class="cls-97" d="M1195.79,659.11l-5.01-3.73c-1.72-1.28-4.14-.92-5.42,.8-1.28,1.72-.92,4.14,.8,5.42l.02,.02,4.95,3.69,.03,.02c1.72,1.28,4.15,.93,5.43-.79,1.28-1.72,.93-4.15-.79-5.43h0Z"/><path class="cls-103" d="M1178.93,646.85l-5.14-3.57c-1.75-1.22-4.16-.78-5.37,.97-1.22,1.75-.78,4.16,.97,5.37l.03,.02,5.07,3.53,.03,.02c1.75,1.22,4.16,.79,5.38-.96,1.22-1.75,.79-4.16-.96-5.38h0Z"/><path class="cls-53" d="M1161.65,635.17l-5.27-3.39c-1.79-1.15-4.16-.63-5.31,1.15-1.15,1.79-.63,4.17,1.15,5.31l.03,.02,5.19,3.35,.04,.02c1.79,1.15,4.17,.64,5.32-1.15,1.15-1.79,.64-4.17-1.15-5.32h0Z"/><path class="cls-74" d="M1143.95,624.1l-5.39-3.19c-1.82-1.08-4.17-.48-5.25,1.34-1.08,1.82-.48,4.17,1.34,5.25l.03,.02,5.31,3.15,.04,.02c1.82,1.08,4.17,.48,5.25-1.34,1.08-1.82,.48-4.17-1.34-5.25h0Z"/><path class="cls-19" d="M1125.85,613.7l-5.5-2.99c-1.85-1.01-4.17-.32-5.17,1.53-1.01,1.85-.32,4.17,1.53,5.17l.03,.02,5.42,2.96,.04,.02c1.85,1.01,4.17,.33,5.18-1.52,1.01-1.85,.33-4.17-1.52-5.18h0Z"/><path class="cls-98" d="M1107.39,603.97l-5.6-2.79c-1.88-.93-4.16-.17-5.09,1.71-.93,1.88-.17,4.16,1.71,5.09l.03,.02,5.53,2.76,.04,.02c1.88,.94,4.16,.17,5.1-1.71,.94-1.88,.17-4.16-1.71-5.1h0Z"/><path class="cls-128" d="M1088.6,594.92l-5.7-2.58c-1.9-.86-4.15-.02-5.01,1.89-.86,1.9-.02,4.15,1.89,5.01h.03l5.62,2.57,.04,.02c1.9,.87,4.15,.02,5.02-1.88,.87-1.9,.02-4.15-1.88-5.02h0Z"/><path class="cls-82" d="M1069.49,586.55l-5.79-2.38c-1.93-.79-4.13,.13-4.92,2.05-.79,1.93,.13,4.13,2.06,4.92h.03l5.71,2.37,.04,.02c1.93,.79,4.13-.12,4.93-2.05,.79-1.93-.12-4.13-2.05-4.93h0Z"/><path class="cls-106" d="M1050.09,578.88l-5.87-2.17c-1.94-.72-4.1,.28-4.82,2.22-.72,1.94,.28,4.1,2.22,4.82h.03l5.79,2.16h.04c1.95,.74,4.11-.26,4.83-2.2,.72-1.95-.27-4.11-2.22-4.83h0Z"/><path class="cls-112" d="M1030.43,571.89l-5.94-1.96c-1.96-.65-4.07,.42-4.72,2.38-.65,1.96,.42,4.07,2.38,4.72h.03l5.87,1.95h.04c1.96,.66,4.08-.4,4.73-2.36,.65-1.96-.41-4.08-2.38-4.73h0Z"/><path class="cls-1" d="M1010.54,565.6l-6.01-1.75c-1.97-.57-4.04,.56-4.62,2.53-.57,1.97,.56,4.04,2.53,4.62h.03l5.93,1.74h.04c1.98,.59,4.05-.54,4.62-2.52,.58-1.98-.55-4.05-2.53-4.62h0Z"/><path class="cls-79" d="M990.44,560.02l-6.07-1.54c-1.99-.5-4,.7-4.5,2.68-.5,1.99,.7,4,2.68,4.51h.03l5.99,1.53h.04c1.99,.52,4.01-.68,4.51-2.67,.51-1.99-.69-4.01-2.68-4.51h0Z"/><path class="cls-130" d="M970.15,555.15l-6.12-1.32c-1.99-.43-3.96,.84-4.39,2.83-.43,1.99,.84,3.96,2.83,4.39h.03l6.04,1.32h.04c2,.44,3.97-.82,4.4-2.82,.43-2-.83-3.96-2.83-4.4h0Z"/><path class="cls-29" d="M949.7,550.99l-6.16-1.11c-2-.36-3.91,.97-4.27,2.97-.36,2,.97,3.91,2.97,4.27h.03l6.08,1.11h.04c2,.37,3.92-.96,4.28-2.96,.36-2-.97-3.92-2.97-4.28h0Z"/><path class="cls-100" d="M929.12,547.55l-6.2-.89c-2-.29-3.86,1.1-4.15,3.1-.29,2,1.1,3.86,3.1,4.15h.03l6.12,.89h.04c2,.3,3.86-1.09,4.16-3.1,.29-2-1.1-3.86-3.1-4.16h0Z"/><path class="cls-12" d="M908.44,544.84l-6.22-.67c-2-.22-3.8,1.23-4.02,3.24-.22,2,1.23,3.8,3.24,4.02h.03l6.14,.67h.04c2.01,.22,3.81-1.22,4.03-3.23,.22-2.01-1.23-3.81-3.23-4.03h0Z"/><path class="cls-20" d="M887.67,542.86l-6.24-.45c-2-.14-3.74,1.36-3.88,3.36-.14,2,1.36,3.74,3.36,3.88h.03l6.16,.46h.04c2,.15,3.75-1.35,3.89-3.36,.15-2-1.36-3.75-3.36-3.89h0Z"/><path class="cls-64" d="M866.84,541.62l-6.25-.23c-2-.07-3.67,1.49-3.75,3.48-.07,2,1.49,3.67,3.48,3.75h.03l6.18,.23h.04c2,.08,3.68-1.48,3.76-3.48,.08-2-1.48-3.68-3.48-3.76h0Z"/><path class="cls-89" d="M845.99,541.13h-6.26c-1.99,0-3.6,1.61-3.6,3.6,0,1.99,1.61,3.6,3.6,3.6h6.25c1.99,.02,3.61-1.6,3.61-3.59,0-1.99-1.61-3.61-3.6-3.61h0Z"/><path class="cls-38" d="M825.14,541.38l-6.25,.22c-1.98,.07-3.53,1.73-3.46,3.71,.07,1.98,1.73,3.53,3.71,3.46h.03l6.18-.21h.04c1.98-.07,3.53-1.73,3.47-3.71-.07-1.98-1.73-3.53-3.71-3.47h0Z"/><path class="cls-69" d="M804.3,542.39l-6.24,.45c-1.97,.14-3.45,1.85-3.31,3.82,.14,1.97,1.85,3.45,3.82,3.31h.03l6.16-.44h.04c1.97-.14,3.45-1.85,3.32-3.82-.14-1.97-1.85-3.45-3.82-3.32h0Z"/><path class="cls-55" d="M783.52,544.16l-6.22,.68c-1.95,.21-3.36,1.97-3.15,3.92,.21,1.95,1.97,3.36,3.92,3.15h.03l6.14-.67h.04c1.96-.22,3.37-1.97,3.16-3.93-.21-1.96-1.97-3.37-3.92-3.16h0Z"/><path class="cls-9" d="M762.82,546.69l-6.19,.91c-1.94,.28-3.27,2.08-2.99,4.02,.28,1.94,2.08,3.27,4.02,2.99h.03l6.11-.89h.04c1.94-.29,3.28-2.09,3-4.03-.28-1.94-2.08-3.28-4.02-3h0Z"/><path class="cls-101" d="M742.21,550.02l-6.15,1.16c-1.91,.36-3.17,2.21-2.81,4.12,.36,1.91,2.21,3.17,4.12,2.81h.04l6.07-1.14h.04c1.92-.37,3.18-2.21,2.82-4.13-.36-1.92-2.2-3.18-4.12-2.82h0Z"/><path class="cls-85" d="M721.75,554.2l-6.1,1.43c-1.89,.44-3.06,2.33-2.62,4.22,.44,1.89,2.33,3.06,4.22,2.62h.04l6.01-1.41h.05c1.89-.45,3.07-2.34,2.63-4.23-.44-1.89-2.33-3.07-4.22-2.63h0Z"/><path class="cls-133" d="M701.5,559.3l-6.03,1.72c-1.86,.53-2.93,2.46-2.41,4.32,.53,1.86,2.46,2.93,4.32,2.4h.04l5.93-1.69h.05c1.86-.54,2.94-2.48,2.42-4.34-.53-1.86-2.46-2.94-4.32-2.42h0Z"/><path class="cls-35" d="M681.5,565.39l-5.94,2.03c-1.81,.62-2.77,2.58-2.15,4.39,.62,1.81,2.58,2.77,4.39,2.15h.04l5.84-1.98,.05-.02c1.82-.61,2.79-2.58,2.18-4.39-.61-1.82-2.58-2.79-4.39-2.18h-.01Z"/><path class="cls-11" d="M661.84,572.52l-5.82,2.35c-1.75,.71-2.59,2.69-1.89,4.44,.7,1.75,2.69,2.59,4.44,1.89l.04-.02,5.72-2.28,.05-.02c1.76-.7,2.61-2.69,1.91-4.45s-2.69-2.61-4.45-1.91h-.01Z"/><path class="cls-10" d="M642.6,580.75l-5.68,2.69c-1.68,.8-2.39,2.8-1.6,4.48s2.8,2.39,4.48,1.6l.04-.02,5.57-2.61,.06-.03c1.69-.79,2.42-2.8,1.62-4.49-.79-1.69-2.8-2.42-4.49-1.62h-.01Z"/><path class="cls-122" d="M623.88,590.14l-5.49,3.06c-1.6,.89-2.18,2.91-1.29,4.51,.89,1.6,2.91,2.18,4.51,1.29l.05-.03,5.39-2.97,.06-.03c1.61-.89,2.2-2.91,1.31-4.53-.89-1.61-2.91-2.2-4.53-1.31h-.01Z"/><path class="cls-54" d="M605.82,600.77l-5.27,3.44c-1.51,.99-1.94,3.01-.95,4.53,.99,1.51,3.01,1.94,4.53,.95l.05-.03,5.17-3.34,.06-.04c1.52-.98,1.96-3.02,.98-4.54-.98-1.52-3.02-1.96-4.54-.98h-.01Z"/><path class="cls-104" d="M588.55,612.68l-5,3.83c-1.41,1.08-1.68,3.11-.6,4.52,1.08,1.41,3.11,1.68,4.52,.6l.05-.04,4.89-3.72,.06-.05c1.42-1.08,1.7-3.11,.62-4.54-1.08-1.43-3.12-1.7-4.54-.62h-.01Z"/><path class="cls-46" d="M572.27,625.91l-4.67,4.23c-1.3,1.18-1.4,3.19-.22,4.49,1.18,1.3,3.19,1.4,4.49,.22l.05-.04,4.57-4.1,.06-.05c1.31-1.18,1.42-3.2,.24-4.51s-3.2-1.42-4.51-.24h-.01Z"/><path class="cls-80" d="M557.13,640.47l-4.29,4.62c-1.18,1.27-1.1,3.25,.16,4.43,1.27,1.18,3.25,1.1,4.43-.16l.05-.05,4.19-4.48,.06-.06c1.19-1.27,1.12-3.26-.14-4.45-1.27-1.19-3.26-1.12-4.45,.15h0Z"/><path class="cls-114" d="M543.32,656.3l-3.85,5.01c-1.04,1.35-.78,3.29,.57,4.33,1.35,1.04,3.29,.78,4.33-.57l.05-.06,3.75-4.84,.06-.07c1.05-1.36,.8-3.3-.55-4.35-1.35-1.05-3.3-.8-4.35,.55h0Z"/><path class="cls-107" d="M531.11,673.45l-3.31,5.36c-.88,1.43-.44,3.3,.99,4.19,1.43,.88,3.3,.44,4.19-.99l.04-.07,3.24-5.19,.05-.08c.89-1.43,.46-3.32-.98-4.21-1.43-.89-3.32-.46-4.21,.97h0Z"/><path class="cls-141" d="M520.69,691.69l-2.78,5.66c-.73,1.49-.11,3.28,1.37,4.01,1.49,.73,3.28,.11,4.01-1.37l.03-.07,2.72-5.49,.04-.08c.74-1.49,.13-3.3-1.36-4.04-1.49-.74-3.3-.13-4.04,1.36h0Z"/><path class="cls-88" d="M512.08,710.85l-2.23,5.89c-.58,1.52,.19,3.23,1.72,3.8,1.52,.58,3.23-.19,3.8-1.72l.02-.06,2.2-5.73,.03-.08c.59-1.53-.18-3.24-1.71-3.83-1.53-.59-3.24,.18-3.83,1.71h0Z"/><path class="cls-75" d="M505.28,730.71l-1.68,6.06c-.43,1.55,.48,3.15,2.02,3.58,1.55,.43,3.15-.48,3.58-2.02l.02-.06,1.67-5.9,.02-.08c.44-1.55-.46-3.17-2.02-3.6-1.55-.44-3.17,.46-3.6,2.02h0Z"/><path class="cls-40" d="M500.29,751.09l-1.15,6.19c-.29,1.55,.74,3.04,2.29,3.33,1.55,.29,3.05-.74,3.33-2.29v-.06l1.16-6.04v-.07c.31-1.56-.71-3.06-2.27-3.36-1.56-.3-3.06,.73-3.36,2.29h0Z"/><path class="cls-108" d="M497.1,771.81l-.61,6.26c-.15,1.55,.98,2.92,2.53,3.07,1.55,.15,2.92-.98,3.07-2.53v-.06l.63-6.11v-.07c.17-1.55-.96-2.94-2.52-3.1-1.55-.16-2.94,.97-3.1,2.53h0Z"/><path class="cls-50" d="M495.67,792.73l-.08,6.29c-.02,1.53,1.2,2.78,2.73,2.8,1.53,.02,2.78-1.2,2.8-2.73v-.06l.11-6.15v-.07c.03-1.54-1.2-2.8-2.73-2.83-1.54-.03-2.8,1.2-2.83,2.73h0Z"/><path class="cls-77" d="M496.01,813.68l.44,6.27c.11,1.5,1.41,2.63,2.91,2.52,1.5-.11,2.63-1.41,2.52-2.91v-.06l-.41-6.14v-.07c-.1-1.51-1.41-2.65-2.92-2.55-1.51,.1-2.65,1.4-2.55,2.91h0Z"/><path class="cls-37" d="M498.1,834.53l.97,6.21c.23,1.46,1.6,2.46,3.06,2.23,1.46-.23,2.46-1.6,2.23-3.06v-.06l-.93-6.08v-.07c-.23-1.47-1.6-2.48-3.07-2.26-1.47,.22-2.48,1.59-2.26,3.06h0Z"/><path class="cls-13" d="M501.95,855.13l1.5,6.11c.35,1.41,1.77,2.28,3.18,1.93,1.41-.35,2.28-1.77,1.93-3.18v-.05l-1.45-5.98-.02-.07c-.34-1.42-1.77-2.3-3.19-1.95-1.42,.34-2.3,1.77-1.95,3.19h0Z"/><path class="cls-57" d="M507.55,875.32l2.02,5.96c.46,1.35,1.93,2.07,3.28,1.62,1.35-.46,2.08-1.93,1.62-3.28l-.02-.06-1.95-5.83-.02-.07c-.46-1.36-1.93-2.1-3.29-1.64-1.36,.46-2.09,1.93-1.64,3.29h0Z"/><path class="cls-51" d="M514.91,894.93l2.55,5.74c.57,1.28,2.07,1.86,3.35,1.29,1.28-.57,1.86-2.07,1.29-3.35l-.02-.05-2.47-5.62-.03-.06c-.57-1.29-2.07-1.88-3.36-1.31-1.29,.57-1.88,2.07-1.31,3.36h0Z"/><path class="cls-71" d="M524.03,913.8l3.08,5.49c.67,1.2,2.19,1.63,3.4,.95,1.2-.67,1.63-2.19,.95-3.4l-.03-.05-2.99-5.37-.03-.06c-.67-1.21-2.2-1.65-3.41-.97s-1.65,2.2-.97,3.41h0Z"/><path class="cls-92" d="M534.92,931.71l3.61,5.15c.76,1.09,2.27,1.36,3.36,.59,1.09-.76,1.36-2.25,.61-3.35l-.04-.06-3.48-5.06-.04-.06c-.76-1.11-2.28-1.39-3.39-.63-1.11,.76-1.39,2.28-.63,3.39v.02Z"/><path class="cls-73" d="M547.54,948.45l4.1,4.76c.84,.98,2.31,1.09,3.29,.25,.97-.84,1.08-2.3,.26-3.28l-.05-.06-3.97-4.68-.05-.06c-.84-.99-2.33-1.11-3.32-.27-.99,.84-1.11,2.33-.27,3.32h.01Z"/><path class="cls-131" d="M561.78,963.82l4.58,4.32c.9,.85,2.33,.81,3.18-.09,.85-.9,.81-2.31-.08-3.17l-.05-.05-4.45-4.26-.05-.05c-.91-.87-2.35-.84-3.22,.07-.87,.91-.84,2.35,.07,3.22h.01Z"/><path class="cls-118" d="M577.52,977.67l4.98,3.83c.95,.73,2.31,.55,3.04-.39,.73-.94,.56-2.3-.38-3.03l-.05-.04-4.85-3.79-.05-.04c-.95-.75-2.33-.58-3.08,.38-.75,.95-.58,2.33,.37,3.08h.01Z"/><path class="cls-61" d="M594.53,989.87l5.32,3.33c.98,.61,2.27,.32,2.88-.66,.61-.97,.32-2.25-.65-2.87l-.05-.03-5.19-3.31-.05-.03c-.98-.63-2.29-.34-2.92,.64s-.34,2.29,.65,2.92h.01Z"/><path class="cls-96" d="M612.61,1000.39l5.6,2.82c.99,.5,2.2,.1,2.7-.89,.5-.98,.11-2.18-.87-2.69l-.05-.03-5.48-2.82-.05-.03c-1-.51-2.22-.12-2.74,.88-.51,1-.12,2.22,.88,2.74h.01Z"/><path class="cls-2" d="M631.56,1009.21l5.82,2.31c.99,.39,2.11-.09,2.5-1.08,.39-.98-.09-2.1-1.07-2.49l-.05-.02-5.71-2.31-.05-.02c-1-.4-2.14,.08-2.54,1.08-.4,1,.08,2.14,1.07,2.54h.01Z"/><path class="cls-45" d="M651.2,1016.3l6.01,1.79c.98,.29,2-.26,2.3-1.24,.29-.97-.26-1.99-1.23-2.29h-.05l-5.9-1.83h-.05c-.99-.32-2.03,.24-2.34,1.22-.3,.99,.25,2.03,1.24,2.34h.01Z"/><path class="cls-84" d="M671.39,1021.68l6.13,1.28c.95,.2,1.89-.41,2.09-1.37,.2-.95-.41-1.88-1.35-2.08h-.04l-6.03-1.31h-.04c-.97-.22-1.92,.4-2.13,1.36-.21,.96,.4,1.92,1.37,2.12h.01Z"/><path class="cls-7" d="M691.94,1025.32l6.22,.76c.92,.11,1.76-.54,1.87-1.47,.11-.92-.54-1.75-1.45-1.87h-.04l-6.12-.8h-.04c-.93-.13-1.79,.53-1.91,1.47-.12,.93,.54,1.79,1.47,1.91h.01Z"/><path class="cls-116" d="M712.72,1027.24l6.26,.23c.88,.03,1.63-.66,1.66-1.54,.03-.88-.65-1.62-1.53-1.66h-.04l-6.17-.28h-.04c-.9-.04-1.66,.65-1.7,1.55-.04,.9,.65,1.66,1.55,1.7h.01Z"/><path class="cls-58" d="M733.57,1027.4l6.25-.3c.84-.04,1.49-.75,1.45-1.59-.04-.83-.74-1.48-1.58-1.45h-.04l-6.18,.24h-.04c-.85,.04-1.52,.75-1.48,1.6,.03,.85,.75,1.52,1.6,1.48h.01Z"/><path class="cls-15" d="M754.37,1025.79l6.21-.83c.79-.11,1.34-.83,1.23-1.62-.1-.78-.82-1.33-1.6-1.23h-.04l-6.14,.78h-.04c-.8,.11-1.37,.84-1.27,1.64,.1,.8,.83,1.37,1.63,1.27h.01Z"/><path class="cls-125" d="M774.96,1022.38l6.1-1.38c.73-.16,1.19-.89,1.03-1.62-.16-.73-.88-1.18-1.61-1.03h-.04l-6.04,1.32h-.04c-.75,.17-1.22,.9-1.06,1.65,.16,.75,.9,1.22,1.64,1.06h.01Z"/><path class="cls-70" d="M795.14,1017.16l5.94-1.92c.67-.22,1.04-.94,.82-1.61-.22-.67-.93-1.03-1.6-.82h-.03l-5.89,1.87h-.03c-.68,.23-1.06,.96-.85,1.64,.22,.68,.95,1.06,1.63,.85h0Z"/><path class="cls-41" d="M814.74,1010.09l5.74-2.48c.61-.26,.88-.96,.62-1.57-.26-.6-.96-.88-1.56-.63h-.03l-5.7,2.42h-.03c-.62,.28-.91,.99-.65,1.61,.26,.62,.98,.91,1.6,.65h0Z"/><path class="cls-110" d="M833.58,1001.18l5.47-3.03c.54-.3,.73-.97,.43-1.51-.3-.53-.97-.73-1.5-.44l-.03,.02-5.43,2.96-.03,.02c-.55,.3-.76,.99-.46,1.54,.3,.55,.99,.76,1.54,.46h0Z"/><path class="cls-32" d="M851.43,990.44l4.02-2.78c.47-.32,.59-.97,.26-1.44-.32-.47-.96-.59-1.43-.27h-.02l-4,2.74h-.02c-.48,.34-.61,1-.28,1.48,.33,.48,.98,.61,1.47,.28h0Z"/></g><g><g><path class="cls-4" d="M558.45,646.06c-2.69,0-5.09-1.69-6-4.23l-8.88-25.08c-12.23-2.98-23.92-7.71-34.81-14.1l-23.83,11.86c-2.43,1.21-5.36,.74-7.29-1.17l-24.62-24.22c-1.93-1.9-2.45-4.82-1.28-7.27l11.46-24.03c-6.56-10.79-11.49-22.4-14.67-34.58l-25.22-8.46c-2.57-.86-4.31-3.26-4.33-5.97l-.28-34.54c-.02-2.71,1.68-5.14,4.23-6.04l25.08-8.88c2.98-12.23,7.72-23.92,14.1-34.81l-11.85-23.83c-1.21-2.42-.74-5.36,1.16-7.29l24.22-24.62c1.9-1.93,4.82-2.45,7.27-1.28l24.03,11.46c10.79-6.57,22.4-11.49,34.58-14.67l8.47-25.22c.87-2.57,3.27-4.31,5.97-4.33l34.54-.28h.05c2.69,0,5.1,1.7,5.99,4.24l8.88,25.08c12.23,2.98,23.92,7.71,34.81,14.1l23.83-11.86c2.43-1.2,5.35-.74,7.29,1.16l24.63,24.23c1.93,1.9,2.45,4.82,1.28,7.27l-11.46,24.03c6.57,10.79,11.49,22.4,14.67,34.58l25.22,8.46c2.57,.86,4.31,3.26,4.33,5.97l.28,34.55c.02,2.71-1.68,5.14-4.23,6.05l-25.08,8.87c-2.98,12.23-7.71,23.92-14.1,34.81l11.85,23.83c1.21,2.43,.74,5.36-1.16,7.29l-24.23,24.63c-1.9,1.93-4.82,2.45-7.27,1.28l-24.03-11.46c-10.79,6.56-22.4,11.49-34.58,14.67l-8.47,25.22c-.86,2.57-3.26,4.31-5.97,4.33l-34.55,.28h-.05Zm-49.31-52.51l1.88,1.15c11.32,6.9,23.59,11.87,36.47,14.77l2.15,.49,9.95,28.11,32.23-.26,9.49-28.27,2.14-.52c12.83-3.12,25.02-8.29,36.23-15.37l1.86-1.18,26.94,12.85,22.6-22.98-13.29-26.72,1.15-1.88c6.9-11.32,11.87-23.59,14.77-36.47l.49-2.15,28.11-9.95-.26-32.23-28.28-9.49-.52-2.14c-3.12-12.83-8.29-25.01-15.37-36.23l-1.18-1.86,12.85-26.93-22.98-22.6-26.72,13.29-1.88-1.15c-11.32-6.9-23.59-11.87-36.47-14.77l-2.15-.49-9.95-28.12-32.23,.26-9.49,28.27-2.14,.52c-12.83,3.12-25.02,8.29-36.23,15.37l-1.86,1.18-26.93-12.85-22.6,22.97,13.29,26.72-1.15,1.88c-6.9,11.32-11.87,23.59-14.77,36.47l-.49,2.15-28.11,9.95,.26,32.23,28.28,9.49,.52,2.14c3.12,12.83,8.29,25.02,15.37,36.23l1.18,1.86-12.85,26.94,22.98,22.6,26.72-13.29Zm35.46-225.92h0Zm29.41,210.53c-23.06,0-44.77-8.89-61.23-25.08-16.63-16.36-25.9-38.22-26.09-61.55-.19-23.33,8.72-45.34,25.08-61.97,16.36-16.63,38.22-25.9,61.55-26.09,6.21-.05,12.45,.56,18.5,1.81,2.16,.45,3.55,2.56,3.1,4.72-.45,2.16-2.56,3.53-4.72,3.1-5.5-1.14-11.14-1.71-16.82-1.64-21.2,.17-41.06,8.59-55.93,23.7-14.87,15.11-22.96,35.11-22.78,56.31,.17,21.2,8.59,41.06,23.7,55.93,15.11,14.87,35.06,23.02,56.31,22.78,21.2-.17,41.06-8.59,55.93-23.7,14.87-15.11,22.96-35.11,22.78-56.31-.12-14.39-4.12-28.45-11.58-40.66-1.15-1.88-.55-4.33,1.33-5.48,1.88-1.15,4.34-.56,5.49,1.33,8.21,13.44,12.62,28.92,12.75,44.75,.19,23.33-8.71,45.34-25.08,61.97-16.36,16.63-38.22,25.9-61.55,26.09-.24,0-.49,0-.74,0Z"/><path class="cls-4" d="M574.44,524.94c-6.08,0-12.08-1.61-17.46-4.77-7.99-4.68-13.68-12.19-16.02-21.15-2.34-8.96-1.05-18.29,3.63-26.28,4.68-7.99,12.19-13.68,21.15-16.02h0c18.49-4.83,37.47,6.29,42.3,24.78,2.34,8.96,1.05,18.29-3.63,26.28-4.68,7.99-12.19,13.68-21.15,16.02-2.92,.76-5.88,1.14-8.82,1.14Zm-6.68-60.49c-6.9,1.8-12.68,6.18-16.28,12.33-3.6,6.15-4.59,13.33-2.79,20.23,1.8,6.9,6.18,12.68,12.33,16.28,6.15,3.6,13.34,4.59,20.23,2.79,6.9-1.8,12.68-6.18,16.28-12.33,3.6-6.15,4.6-13.33,2.79-20.23-3.72-14.23-18.32-22.79-32.56-19.07h0Z"/></g><path class="cls-4" d="M423.74,775.79c-1.29,0-2.53-.6-3.33-1.68l-7.25-9.84c-5.76,.27-11.52-.25-17.15-1.55l-8.89,8.39c-1.28,1.21-3.19,1.47-4.75,.65l-14.71-7.71c-1.56-.81-2.43-2.53-2.17-4.27l1.83-12.09c-4.28-3.89-7.98-8.33-11.04-13.22l-12.21-.35c-1.77-.06-3.3-1.22-3.82-2.9l-4.96-15.86c-.53-1.68,.07-3.51,1.49-4.56l9.83-7.25c-.27-5.76,.25-11.51,1.55-17.15l-8.39-8.89c-1.21-1.28-1.47-3.19-.66-4.75l7.71-14.72c.82-1.56,2.55-2.43,4.29-2.16l12.08,1.83c3.89-4.28,8.33-7.98,13.22-11.04l.36-12.21c.05-1.76,1.21-3.29,2.89-3.82l15.86-4.96c1.67-.53,3.51,.07,4.56,1.49l7.25,9.84c5.76-.27,11.52,.25,17.15,1.55l8.89-8.39c1.28-1.21,3.19-1.47,4.74-.66l14.72,7.71c1.56,.81,2.43,2.54,2.17,4.28l-1.83,12.09c4.28,3.89,7.98,8.33,11.04,13.22l12.21,.36c1.76,.05,3.3,1.21,3.82,2.9l4.96,15.85c.52,1.69-.08,3.51-1.49,4.56l-9.83,7.25c.27,5.76-.25,11.52-1.55,17.15l8.39,8.89c1.21,1.27,1.47,3.19,.66,4.75l-7.71,14.72c-.82,1.56-2.53,2.44-4.27,2.17l-12.09-1.83c-3.89,4.28-8.33,7.98-13.22,11.04l-.36,12.21c-.05,1.76-1.21,3.29-2.89,3.82l-15.86,4.96c-.41,.13-.82,.19-1.23,.19Zm-.55-5.9h0Zm-7.15-11.8l8.41,11.41,13.33-4.17,.41-14.17,1.42-.84c5.37-3.17,10.17-7.18,14.26-11.91l1.08-1.25,14.02,2.13,6.48-12.37-9.73-10.32,.41-1.6c1.56-6.06,2.13-12.28,1.67-18.5l-.12-1.65,11.41-8.41-4.17-13.33-14.17-.41-.84-1.42c-3.17-5.37-7.18-10.17-11.91-14.26l-1.25-1.08,2.12-14.02-12.38-6.48-10.32,9.73-1.6-.41c-6.06-1.56-12.28-2.13-18.5-1.67l-1.65,.12-8.41-11.41-13.33,4.17-.41,14.17-1.42,.84c-5.37,3.17-10.16,7.17-14.26,11.91l-1.08,1.25-14.02-2.13-6.48,12.38,9.73,10.32-.41,1.6c-1.56,6.06-2.13,12.28-1.67,18.5l.12,1.65-11.41,8.41,4.17,13.33,14.17,.41,.84,1.42c3.17,5.37,7.18,10.17,11.91,14.26l1.25,1.08-2.12,14.02,12.38,6.48,10.31-9.73,1.6,.41c6.06,1.56,12.29,2.12,18.5,1.67l1.65-.12Zm-30.9,8.38h0Zm-14.72-7.71h0Zm105.94-30.88h0Zm-1.83-56.03h0Zm-124.33-10.04h0Zm99.85-19.27h0Zm-67.31-7.89h0Zm-2.99-.08h0Zm17.55-3.15h0Zm12.82,112.66c-18.35,0-35.39-11.82-41.15-30.24-7.09-22.67,5.59-46.89,28.27-53.97,2.94-.92,5.96-1.52,8.99-1.8,1.63-.13,3.1,1.06,3.25,2.71,.15,1.65-1.06,3.1-2.71,3.25-2.61,.24-5.22,.76-7.75,1.55-19.52,6.1-30.44,26.95-24.34,46.48,6.1,19.52,26.95,30.45,46.48,24.34,19.52-6.1,30.44-26.95,24.34-46.48-2.01-6.42-5.71-12.17-10.7-16.61-1.23-1.1-1.34-2.99-.24-4.23,1.1-1.23,2.99-1.34,4.22-.24,5.8,5.17,10.1,11.84,12.43,19.3,7.09,22.67-5.59,46.88-28.27,53.97-4.26,1.33-8.58,1.97-12.83,1.97Z"/></g><g><path class="cls-6" d="M1181.43,331c-9.45-13.52-23.55-19.09-37.37-15.04-15.06,4.41-23.57,21.27-37.58,28.01-24.45,11.76-58.27-11.48-76.84,18.85-22.71,37.09-40.26,9.27-40.26,34.44s156.93,6.62,234.36,7.95c11.19,.19,59.75-.76,38.85-27.97-6.49-8.45-15.76-9.86-24.39-11.84-11.26-2.58-38.03-3.99-46.19-14.25-4.39-5.52-6.08-13.46-10.04-19.37-.18-.26-.35-.52-.53-.78Z"/><path class="cls-6" d="M1464.95,278.57c-5.68-8.12-14.15-11.47-22.45-9.03-9.05,2.65-14.16,12.78-22.58,16.83-14.69,7.07-35-6.9-46.16,11.32-13.65,22.28-24.19,5.57-24.19,20.69s94.28,3.98,140.79,4.77c6.72,.11,35.9-.46,23.34-16.8-3.9-5.07-9.47-5.92-14.65-7.11-6.76-1.55-22.85-2.4-27.75-8.56-2.64-3.32-3.65-8.09-6.03-11.64-.11-.16-.21-.31-.32-.47Z"/></g><g><g><path class="cls-24" d="M847.51,1027.42c-.07,72.52-.62,322.67-4.96,411.23-.46,9.38-7.06,16.77-15.09,16.9-39.72,.64-185.29,1.27-250.13-3.35-13.51-.96-23.97-14.01-23.9-29.85,.34-76.12,2.1-290.18,11.34-388.06,1.11-11.73,9.2-20.91,19.25-21.86,43.33-4.1,189.72-13.23,245.7-7.73,10.1,.99,17.81,10.86,17.8,22.72Z"/><path class="cls-119" d="M829.31,1049.27c.84,58.56,3.27,253.35-.46,325.28-.55,10.51-7.82,18.86-16.82,19.28-37.04,1.71-163.35,4.5-217.49-1.78-9.75-1.13-17.21-10.54-17.48-22-1.43-59.75-5.31-241.17-1.68-312.29,.58-11.35,8.3-20.45,18-21.25,40.11-3.32,174.41-10.35,220.45-6.39,8.64,.74,15.34,9.02,15.49,19.16Z"/><g class="cls-66"><path class="cls-4" d="M814.78,1066.31c.74,51.85,2.9,224.35-.41,288.05-.48,9.31-6.93,16.7-14.89,17.07-32.8,1.52-144.65,3.99-192.59-1.58-8.63-1-15.24-9.34-15.48-19.48-1.26-52.91-4.7-213.57-1.49-276.55,.51-10.05,7.35-18.11,15.94-18.82,35.52-2.94,154.45-9.16,195.21-5.65,7.65,.66,13.59,7.99,13.72,16.96Z"/></g><path class="cls-5" d="M749.65,1015.6h0c-.05,2.22-1.57,4.03-3.47,4.1-9.39,.37-35.83,1.41-47.65,1.95-2.33,.11-4.1-2.38-3.6-5.05l.09-.46c.34-1.82,1.67-3.17,3.25-3.3,8-.68,32.12-2.52,48.05-1.5,1.91,.12,3.38,2.01,3.33,4.26Z"/></g><g><circle class="cls-16" cx="702.38" cy="1212.56" r="93.06" transform="translate(-651.69 851.81) rotate(-45)"/><path class="cls-4" d="M759.62,1236.88c-1.4-4.97-5.05-9.01-9.85-10.91l-6.69-2.65c-5.39-2.13-11.54-.4-15.01,4.24l-5.96,7.96c-9.36,.27-20.16-3.22-29.75-10.39-9-6.74-15.2-15.42-17.89-23.95-.04-.12,0-.25,.11-.33,.1-.07,.24-.07,.34,0l5.37-7.18c4-5.34,3.89-12.7-.27-17.92l-4.45-5.59c-3.24-4.07-8.18-6.41-13.38-6.33-5.2,.08-10.07,2.56-13.19,6.72-1.62,2.16-2.8,4.58-3.53,7.21-4.93,17.44,9.11,43.8,35.02,63.19,25.89,19.37,55.13,25.42,70.47,15.8,2.32-1.46,4.33-3.26,5.95-5.43,3.1-4.14,4.09-9.48,2.68-14.45Z"/></g><path class="cls-4" d="M591.62,1439.31c-15.66,0-28.62-12.74-28.62-28.41v-48.55c0-.57,.43-1.03,1-1.03s1,.46,1,1.03v48.55c0,14.53,12.07,26.34,26.59,26.34,.57,0,1.05,.46,1.05,1.03s-.45,1.03-1.02,1.03Z"/></g></g></g></g></svg>