<?xml version="1.0" encoding="UTF-8"?><svg xmlns="http://www.w3.org/2000/svg" xmlns:xlink="http://www.w3.org/1999/xlink" viewBox="0 0 459 322"><defs><style>.cls-1{fill:url(#_åçûìÿííûé_ãðàäèåíò_127-2);}.cls-1,.cls-2,.cls-3,.cls-4,.cls-5,.cls-6,.cls-7,.cls-8,.cls-9,.cls-10,.cls-11,.cls-12,.cls-13,.cls-14,.cls-15,.cls-16,.cls-17,.cls-18,.cls-19,.cls-20,.cls-21,.cls-22,.cls-23,.cls-24,.cls-25,.cls-26,.cls-27,.cls-28,.cls-29,.cls-30,.cls-31,.cls-32,.cls-33,.cls-34,.cls-35,.cls-36,.cls-37,.cls-38,.cls-39,.cls-40,.cls-41,.cls-42,.cls-43,.cls-44,.cls-45{fill-rule:evenodd;}.cls-46{fill:url(#_åçûìÿííûé_ãðàäèåíò_280-22);}.cls-47{fill:url(#_åçûìÿííûé_ãðàäèåíò_280-31);}.cls-48{fill:url(#_åçûìÿííûé_ãðàäèåíò_280-39);}.cls-2{fill:#8e4072;}.cls-2,.cls-13,.cls-15,.cls-39{opacity:.5;}.cls-2,.cls-15,.cls-27,.cls-34,.cls-49,.cls-39{mix-blend-mode:multiply;}.cls-3{fill:url(#_åçûìÿííûé_ãðàäèåíò_127-4);}.cls-4{fill:url(#_åçûìÿííûé_ãðàäèåíò_10);}.cls-50,.cls-51{fill:#fff;}.cls-52{fill:url(#_åçûìÿííûé_ãðàäèåíò_280-29);}.cls-5{fill:url(#_åçûìÿííûé_ãðàäèåíò_13);}.cls-53{fill:url(#_åçûìÿííûé_ãðàäèåíò_280-8);}.cls-6{fill:url(#_åçûìÿííûé_ãðàäèåíò_192);}.cls-7{fill:url(#_åçûìÿííûé_ãðàäèåíò_65);}.cls-7,.cls-17,.cls-54,.cls-24,.cls-55,.cls-56,.cls-45{mix-blend-mode:screen;}.cls-7,.cls-17,.cls-56{opacity:.2;}.cls-57{fill:url(#_åçûìÿííûé_ãðàäèåíò_280-9);}.cls-58{fill:url(#_åçûìÿííûé_ãðàäèåíò_280-56);}.cls-59{fill:url(#_åçûìÿííûé_ãðàäèåíò_280-23);}.cls-8{fill:url(#_åçûìÿííûé_ãðàäèåíò_50-3);}.cls-60{fill:url(#_åçûìÿííûé_ãðàäèåíò_280-26);}.cls-61{fill:url(#_åçûìÿííûé_ãðàäèåíò_280-54);}.cls-62{fill:url(#_åçûìÿííûé_ãðàäèåíò_280-17);}.cls-9{fill:url(#_åçûìÿííûé_ãðàäèåíò_113);}.cls-63{fill:url(#_åçûìÿííûé_ãðàäèåíò_244);}.cls-64{fill:url(#_åçûìÿííûé_ãðàäèåíò_280-6);}.cls-65{fill:url(#_åçûìÿííûé_ãðàäèåíò_280-2);}.cls-10{fill:url(#_åçûìÿííûé_ãðàäèåíò_50-5);}.cls-66{fill:url(#_åçûìÿííûé_ãðàäèåíò_280-28);}.cls-11{fill:#fbd99a;}.cls-11,.cls-13,.cls-51,.cls-29{mix-blend-mode:soft-light;}.cls-67{fill:url(#_åçûìÿííûé_ãðàäèåíò_280-7);}.cls-68{fill:url(#_åçûìÿííûé_ãðàäèåíò_280);}.cls-12{fill:url(#_åçûìÿííûé_ãðàäèåíò_192-8);}.cls-13,.cls-29{fill:#fbf9fa;}.cls-69,.cls-44{fill:#8b0c42;}.cls-14{fill:url(#_åçûìÿííûé_ãðàäèåíò_135);}.cls-70{fill:url(#_åçûìÿííûé_ãðàäèåíò_280-58);}.cls-71{fill:url(#_åçûìÿííûé_ãðàäèåíò_280-43);}.cls-72{fill:#3492ff;}.cls-73{fill:#2c0045;}.cls-15{fill:#401734;}.cls-74{isolation:isolate;}.cls-16{fill:url(#_åçûìÿííûé_ãðàäèåíò_135-3);}.cls-75{fill:url(#_åçûìÿííûé_ãðàäèåíò_280-24);}.cls-76{fill:url(#_åçûìÿííûé_ãðàäèåíò_280-34);}.cls-17{fill:url(#_åçûìÿííûé_ãðàäèåíò_65-2);}.cls-77{fill:url(#_åçûìÿííûé_ãðàäèåíò_280-10);}.cls-78{fill:url(#_åçûìÿííûé_ãðàäèåíò_280-55);}.cls-79{fill:url(#_åçûìÿííûé_ãðàäèåíò_280-46);}.cls-54{fill:url(#_åçûìÿííûé_ãðàäèåíò_296);}.cls-80{fill:url(#_åçûìÿííûé_ãðàäèåíò_280-18);}.cls-18{fill:url(#_åçûìÿííûé_ãðàäèåíò_150);}.cls-19{fill:url(#_åçûìÿííûé_ãðàäèåíò_206);}.cls-20{fill:url(#_åçûìÿííûé_ãðàäèåíò_13-2);}.cls-21{fill:#a695cf;}.cls-81{fill:url(#_åçûìÿííûé_ãðàäèåíò_13-4);}.cls-22{fill:url(#_åçûìÿííûé_ãðàäèåíò_192-2);}.cls-82{fill:url(#_åçûìÿííûé_ãðàäèåíò_280-36);}.cls-83{fill:url(#_åçûìÿííûé_ãðàäèåíò_280-45);}.cls-84{fill:url(#_åçûìÿííûé_ãðàäèåíò_280-47);}.cls-85{fill:url(#_åçûìÿííûé_ãðàäèåíò_280-52);}.cls-23{fill:url(#_åçûìÿííûé_ãðàäèåíò_50-9);}.cls-86{fill:url(#_åçûìÿííûé_ãðàäèåíò_280-48);}.cls-87{fill:url(#_åçûìÿííûé_ãðàäèåíò_280-60);}.cls-24{fill:url(#_åçûìÿííûé_ãðàäèåíò_129);}.cls-88{fill:url(#_åçûìÿííûé_ãðàäèåíò_13-3);}.cls-89{fill:url(#_åçûìÿííûé_ãðàäèåíò_280-25);}.cls-25{fill:url(#_åçûìÿííûé_ãðàäèåíò_204);}.cls-90{fill:url(#_åçûìÿííûé_ãðàäèåíò_59-2);}.cls-91{fill:url(#_åçûìÿííûé_ãðàäèåíò_36);}.cls-26{fill:url(#_åçûìÿííûé_ãðàäèåíò_127);}.cls-27{fill:#953345;}.cls-27,.cls-34,.cls-49{opacity:.3;}.cls-28{fill:url(#_åçûìÿííûé_ãðàäèåíò_10-2);}.cls-92{fill:url(#_åçûìÿííûé_ãðàäèåíò_204-4);}.cls-93{fill:#ff4f4a;}.cls-29{opacity:.8;}.cls-94{fill:url(#_åçûìÿííûé_ãðàäèåíò_280-53);}.cls-95{fill:url(#_åçûìÿííûé_ãðàäèåíò_280-40);}.cls-96{fill:url(#_åçûìÿííûé_ãðàäèåíò_280-38);}.cls-97{fill:url(#_åçûìÿííûé_ãðàäèåíò_280-41);}.cls-55{fill:url(#_åçûìÿííûé_ãðàäèåíò_108);}.cls-98{fill:url(#_åçûìÿííûé_ãðàäèåíò_280-20);}.cls-30{fill:url(#_åçûìÿííûé_ãðàäèåíò_127-3);}.cls-99{fill:url(#_åçûìÿííûé_ãðàäèåíò_280-16);}.cls-100{fill:url(#_åçûìÿííûé_ãðàäèåíò_280-27);}.cls-101{fill:url(#_åçûìÿííûé_ãðàäèåíò_192-6);}.cls-31{fill:url(#_åçûìÿííûé_ãðàäèåíò_244-2);}.cls-102{fill:url(#_åçûìÿííûé_ãðàäèåíò_280-3);}.cls-103{fill:url(#_åçûìÿííûé_ãðàäèåíò_110);}.cls-104{fill:url(#_åçûìÿííûé_ãðàäèåíò_192-7);}.cls-105{fill:url(#_åçûìÿííûé_ãðàäèåíò_38);}.cls-106{fill:url(#_åçûìÿííûé_ãðàäèåíò_280-50);}.cls-107{fill:url(#_åçûìÿííûé_ãðàäèåíò_59);}.cls-108{fill:url(#_åçûìÿííûé_ãðàäèåíò_50-8);}.cls-109{fill:url(#_åçûìÿííûé_ãðàäèåíò_57);}.cls-110{fill:url(#_åçûìÿííûé_ãðàäèåíò_280-14);}.cls-111{fill:url(#_åçûìÿííûé_ãðàäèåíò_280-30);}.cls-32{fill:url(#_åçûìÿííûé_ãðàäèåíò_204-2);}.cls-33{fill:url(#_åçûìÿííûé_ãðàäèåíò_115);}.cls-112{fill:url(#_åçûìÿííûé_ãðàäèåíò_280-44);}.cls-34,.cls-49{fill:#540041;}.cls-113{fill:url(#_åçûìÿííûé_ãðàäèåíò_280-35);}.cls-114{fill:url(#_åçûìÿííûé_ãðàäèåíò_280-33);}.cls-115{fill:url(#_åçûìÿííûé_ãðàäèåíò_280-37);}.cls-35{fill:url(#_åçûìÿííûé_ãðàäèåíò_50-7);}.cls-116{fill:url(#_åçûìÿííûé_ãðàäèåíò_192-5);}.cls-36{fill:url(#_åçûìÿííûé_ãðàäèåíò_178-2);}.cls-56{fill:url(#_åçûìÿííûé_ãðàäèåíò_65-3);}.cls-117{fill:url(#_åçûìÿííûé_ãðàäèåíò_280-32);}.cls-118{fill:url(#_åçûìÿííûé_ãðàäèåíò_280-11);}.cls-119{fill:url(#_åçûìÿííûé_ãðàäèåíò_105);}.cls-120{fill:url(#_åçûìÿííûé_ãðàäèåíò_280-4);}.cls-121{fill:#fffb00;}.cls-122{fill:url(#_åçûìÿííûé_ãðàäèåíò_280-49);}.cls-37{fill:url(#_åçûìÿííûé_ãðàäèåíò_192-3);}.cls-38{fill:url(#_åçûìÿííûé_ãðàäèåíò_50-2);}.cls-39{fill:#601734;}.cls-123{fill:url(#_åçûìÿííûé_ãðàäèåíò_204-3);}.cls-40{fill:url(#_åçûìÿííûé_ãðàäèåíò_178);}.cls-41{fill:url(#_åçûìÿííûé_ãðàäèåíò_50-4);}.cls-124{fill:url(#_åçûìÿííûé_ãðàäèåíò_280-59);}.cls-125{fill:url(#_åçûìÿííûé_ãðàäèåíò_38-2);}.cls-126{fill:url(#_åçûìÿííûé_ãðàäèåíò_280-57);}.cls-42{fill:url(#_åçûìÿííûé_ãðàäèåíò_50);}.cls-43{fill:url(#_åçûìÿííûé_ãðàäèåíò_135-2);}.cls-127{fill:url(#_åçûìÿííûé_ãðàäèåíò_192-4);}.cls-128{fill:url(#_åçûìÿííûé_ãðàäèåíò_280-5);}.cls-129{fill:url(#_åçûìÿííûé_ãðàäèåíò_280-19);}.cls-130{fill:url(#_åçûìÿííûé_ãðàäèåíò_36-2);}.cls-131{fill:url(#_åçûìÿííûé_ãðàäèåíò_280-21);}.cls-132{fill:url(#_åçûìÿííûé_ãðàäèåíò_280-12);}.cls-133{fill:url(#_åçûìÿííûé_ãðàäèåíò_280-51);}.cls-134{fill:url(#_åçûìÿííûé_ãðàäèåíò_280-42);}.cls-135{fill:url(#_åçûìÿííûé_ãðàäèåíò_280-13);}.cls-136{fill:url(#_åçûìÿííûé_ãðàäèåíò_50-6);}.cls-137{fill:url(#_åçûìÿííûé_ãðàäèåíò_280-15);}.cls-45{fill:url(#_åçûìÿííûé_ãðàäèåíò_225);}</style><linearGradient id="_åçûìÿííûé_ãðàäèåíò_127" x1="211.86" y1="210.6" x2="211.86" y2="90.12" gradientTransform="matrix(1, 0, 0, 1, 0, 0)" gradientUnits="userSpaceOnUse"><stop offset="0" stop-color="#2a0e45"/><stop offset="1" stop-color="#561f7d"/></linearGradient><linearGradient id="_åçûìÿííûé_ãðàäèåíò_150" x1="212.53" y1="197.17" x2="212.53" y2="96" gradientTransform="matrix(1, 0, 0, 1, 0, 0)" gradientUnits="userSpaceOnUse"><stop offset="0" stop-color="#4bffff"/><stop offset="1" stop-color="#2fc5ff"/></linearGradient><radialGradient id="_åçûìÿííûé_ãðàäèåíò_13" cx="242.59" cy="-1813.39" fx="242.59" fy="-1813.39" r="59.04" gradientTransform="translate(0 2612.74) scale(1 1.33)" gradientUnits="userSpaceOnUse"><stop offset="0" stop-color="#ebd7e3"/><stop offset=".98" stop-color="#bdafd2"/></radialGradient><linearGradient id="_åçûìÿííûé_ãðàäèåíò_50" x1="210.26" y1="231.37" x2="210.26" y2="210.59" gradientTransform="matrix(1, 0, 0, 1, 0, 0)" gradientUnits="userSpaceOnUse"><stop offset="0" stop-color="#603082"/><stop offset=".99" stop-color="#2a0e51"/></linearGradient><radialGradient id="_åçûìÿííûé_ãðàäèåíò_57" cx="209.56" cy="233.35" fx="209.56" fy="233.35" r="22.52" gradientTransform="matrix(1, 0, 0, 1, 0, 0)" gradientUnits="userSpaceOnUse"><stop offset="0" stop-color="#b3819d"/><stop offset="1" stop-color="#785ca6"/></radialGradient><radialGradient id="_åçûìÿííûé_ãðàäèåíò_13-2" cx="209.56" cy="230.31" fx="209.56" fy="230.31" r="22.49" gradientTransform="matrix(1, 0, 0, 1, 0, 0)" xlink:href="#_åçûìÿííûé_ãðàäèåíò_13"/><linearGradient id="_åçûìÿííûé_ãðàäèåíò_135" x1="307.51" y1="109.38" x2="334.03" y2="109.38" gradientTransform="matrix(1, 0, 0, 1, 0, 0)" gradientUnits="userSpaceOnUse"><stop offset="0" stop-color="#ffa700"/><stop offset="1" stop-color="#ffd328"/></linearGradient><linearGradient id="_åçûìÿííûé_ãðàäèåíò_115" x1="332.19" y1="127.82" x2="307.88" y2="130.99" gradientTransform="matrix(1, 0, 0, 1, 0, 0)" gradientUnits="userSpaceOnUse"><stop offset="0" stop-color="#ff6e27"/><stop offset="1" stop-color="#e03347"/></linearGradient><linearGradient id="_åçûìÿííûé_ãðàäèåíò_135-2" x1="310.97" y1="164.24" x2="338.41" y2="164.24" xlink:href="#_åçûìÿííûé_ãðàäèåíò_135"/><linearGradient id="_åçûìÿííûé_ãðàäèåíò_244" x1="81.73" y1="89.84" x2="81.73" y2="20.72" gradientTransform="translate(7.5 87.26) scale(1 1.02)" gradientUnits="userSpaceOnUse"><stop offset="0" stop-color="#ff3363"/><stop offset="1" stop-color="#ff6e27"/></linearGradient><radialGradient id="_åçûìÿííûé_ãðàäèåíò_178" cx="81.48" cy="44.48" fx="81.48" fy="44.48" r="50.03" gradientTransform="translate(-6.84 118.54) rotate(-19.61)" gradientUnits="userSpaceOnUse"><stop offset="0" stop-color="#faf5f8"/><stop offset=".98" stop-color="#d4cbe2"/></radialGradient><linearGradient id="_åçûìÿííûé_ãðàäèåíò_127-2" x1="143.82" y1="172.28" x2="143.82" y2="147.62" gradientTransform="translate(27.47 -70.73) rotate(23.95)" xlink:href="#_åçûìÿííûé_ãðàäèåíò_127"/><linearGradient id="_åçûìÿííûé_ãðàäèåíò_127-3" x1="296" y1="222.1" x2="296" y2="204.06" gradientTransform="translate(227.39 -197.23) rotate(75.23)" xlink:href="#_åçûìÿííûé_ãðàäèåíò_127"/><linearGradient id="_åçûìÿííûé_ãðàäèåíò_127-4" x1="82.01" y1="60.24" x2="82.01" y2="53.64" gradientTransform="translate(-6.84 118.54) rotate(-19.61)" xlink:href="#_åçûìÿííûé_ãðàäèåíò_127"/><radialGradient id="_åçûìÿííûé_ãðàäèåíò_178-2" cx="82.01" cy="56.94" fx="82.01" fy="56.94" r="1.6" xlink:href="#_åçûìÿííûé_ãðàäèåíò_178"/><radialGradient id="_åçûìÿííûé_ãðàäèåíò_296" cx="297.27" cy="205.98" fx="297.27" fy="205.98" r="9.01" gradientTransform="translate(232.72 -149.87) rotate(45)" gradientUnits="userSpaceOnUse"><stop offset="0" stop-color="#ff7e00"/><stop offset="0" stop-color="#fb7c00"/><stop offset=".23" stop-color="#b05700"/><stop offset=".43" stop-color="#713800"/><stop offset=".62" stop-color="#401f00"/><stop offset=".78" stop-color="#1d0e00"/><stop offset=".91" stop-color="#070300"/><stop offset="1" stop-color="#000"/></radialGradient><linearGradient id="_åçûìÿííûé_ãðàäèåíò_50-2" x1="101.13" y1="284.72" x2="339.21" y2="284.72" gradientTransform="translate(-13.67 9.94) rotate(-4.16)" xlink:href="#_åçûìÿííûé_ãðàäèåíò_50"/><radialGradient id="_åçûìÿííûé_ãðàäèåíò_204" cx="156.41" cy="263.9" fx="156.41" fy="263.9" r="108.23" gradientTransform="translate(-13.67 9.94) rotate(-4.16)" gradientUnits="userSpaceOnUse"><stop offset="0" stop-color="#6d47d3"/><stop offset=".99" stop-color="#713592"/></radialGradient><linearGradient id="_åçûìÿííûé_ãðàäèåíò_50-3" x1="110.86" y1="270.18" x2="332.42" y2="270.18" gradientTransform="translate(-13.67 9.94) rotate(-4.16)" xlink:href="#_åçûìÿííûé_ãðàäèåíò_50"/><radialGradient id="_åçûìÿííûé_ãðàäèåíò_206" cx="221.64" cy="267.57" fx="221.64" fy="267.57" r="78.58" gradientTransform="translate(-13.67 9.94) rotate(-4.16)" gradientUnits="userSpaceOnUse"><stop offset="0" stop-color="#6d47d3"/><stop offset=".99" stop-color="#713592"/></radialGradient><linearGradient id="_åçûìÿííûé_ãðàäèåíò_280" x1="134.77" y1="270.97" x2="321.03" y2="271.21" gradientTransform="translate(-13.67 9.94) rotate(-4.16)" gradientUnits="userSpaceOnUse"><stop offset=".02" stop-color="#ff4c06"/><stop offset=".17" stop-color="#ff0e59"/><stop offset=".54" stop-color="#ff12c3"/><stop offset="1" stop-color="#00b3ff"/></linearGradient><linearGradient id="_åçûìÿííûé_ãðàäèåíò_280-2" x1="134.78" y1="267.07" x2="321.04" y2="267.31" xlink:href="#_åçûìÿííûé_ãðàäèåíò_280"/><linearGradient id="_åçûìÿííûé_ãðàäèåíò_280-3" x1="134.78" y1="264.47" x2="321.04" y2="264.71" xlink:href="#_åçûìÿííûé_ãðàäèåíò_280"/><linearGradient id="_åçûìÿííûé_ãðàäèåíò_280-4" x1="134.78" y1="261.4" x2="321.04" y2="261.64" xlink:href="#_åçûìÿííûé_ãðàäèåíò_280"/><linearGradient id="_åçûìÿííûé_ãðàäèåíò_280-5" x1="134.79" y1="259.4" x2="321.05" y2="259.63" xlink:href="#_åçûìÿííûé_ãðàäèåíò_280"/><linearGradient id="_åçûìÿííûé_ãðàäèåíò_280-6" x1="134.78" y1="265.44" x2="321.04" y2="265.68" xlink:href="#_åçûìÿííûé_ãðàäèåíò_280"/><linearGradient id="_åçûìÿííûé_ãðàäèåíò_280-7" x1="134.79" y1="260.44" x2="321.05" y2="260.68" gradientTransform="translate(139.05 -43.13) rotate(26.86)" xlink:href="#_åçûìÿííûé_ãðàäèåíò_280"/><linearGradient id="_åçûìÿííûé_ãðàäèåíò_280-8" x1="134.77" y1="272.04" x2="321.03" y2="272.28" xlink:href="#_åçûìÿííûé_ãðàäèåíò_280"/><linearGradient id="_åçûìÿííûé_ãðàäèåíò_280-9" x1="134.79" y1="259.05" x2="321.04" y2="259.28" gradientTransform="translate(162.78 -51.37) rotate(31.17)" xlink:href="#_åçûìÿííûé_ãðàäèåíò_280"/><linearGradient id="_åçûìÿííûé_ãðàäèåíò_280-10" x1="134.77" y1="268.59" x2="321.04" y2="268.83" xlink:href="#_åçûìÿííûé_ãðàäèåíò_280"/><linearGradient id="_åçûìÿííûé_ãðàäèåíò_280-11" x1="134.78" y1="262.87" x2="321.04" y2="263.11" xlink:href="#_åçûìÿííûé_ãðàäèåíò_280"/><linearGradient id="_åçûìÿííûé_ãðàäèåíò_280-12" x1="134.78" y1="266.16" x2="321.04" y2="266.39" gradientTransform="translate(329.77 -154.4) rotate(51.48)" xlink:href="#_åçûìÿííûé_ãðàäèåíò_280"/><linearGradient id="_åçûìÿííûé_ãðàäèåíò_280-13" x1="134.79" y1="260.48" x2="321.05" y2="260.71" gradientTransform="translate(322.39 -150.41) rotate(51.5)" xlink:href="#_åçûìÿííûé_ãðàäèåíò_280"/><linearGradient id="_åçûìÿííûé_ãðàäèåíò_280-14" x1="134.77" y1="273.85" x2="321.03" y2="274.08" xlink:href="#_åçûìÿííûé_ãðàäèåíò_280"/><linearGradient id="_åçûìÿííûé_ãðàäèåíò_280-15" x1="134.78" y1="263.02" x2="321.04" y2="263.26" gradientTransform="translate(286.7 -145.19) rotate(46.32)" xlink:href="#_åçûìÿííûé_ãðàäèåíò_280"/><linearGradient id="_åçûìÿííûé_ãðàäèåíò_280-16" x1="134.77" y1="269.52" x2="321.03" y2="269.75" xlink:href="#_åçûìÿííûé_ãðàäèåíò_280"/><linearGradient id="_åçûìÿííûé_ãðàäèåíò_280-17" x1="134.78" y1="259.08" x2="321.05" y2="259.32" gradientTransform="translate(283.09 -143.14) rotate(46.43)" xlink:href="#_åçûìÿííûé_ãðàäèåíò_280"/><linearGradient id="_åçûìÿííûé_ãðàäèåíò_280-18" x1="134.78" y1="266.13" x2="321.04" y2="266.37" xlink:href="#_åçûìÿííûé_ãðàäèåíò_280"/><linearGradient id="_åçûìÿííûé_ãðàäèåíò_280-19" x1="134.78" y1="260.47" x2="321.05" y2="260.71" xlink:href="#_åçûìÿííûé_ãðàäèåíò_280"/><linearGradient id="_åçûìÿííûé_ãðàäèåíò_280-20" x1="134.77" y1="273.59" x2="321.03" y2="273.82" xlink:href="#_åçûìÿííûé_ãðàäèåíò_280"/><linearGradient id="_åçûìÿííûé_ãðàäèåíò_280-21" x1="134.79" y1="259.08" x2="321.05" y2="259.32" xlink:href="#_åçûìÿííûé_ãðàäèåíò_280"/><linearGradient id="_åçûìÿííûé_ãðàäèåíò_280-22" x1="134.78" y1="269.43" x2="321.03" y2="269.67" gradientTransform="translate(154.99 -109.85) rotate(26.45)" xlink:href="#_åçûìÿííûé_ãðàäèåíò_280"/><linearGradient id="_åçûìÿííûé_ãðàäèåíò_280-23" x1="134.79" y1="263.07" x2="321.04" y2="263.3" xlink:href="#_åçûìÿííûé_ãðàäèåíò_280"/><linearGradient id="_åçûìÿííûé_ãðàäèåíò_280-24" x1="134.78" y1="266.01" x2="321.04" y2="266.24" gradientTransform="translate(126.52 -94.82) rotate(22.31)" xlink:href="#_åçûìÿííûé_ãðàäèåíò_280"/><linearGradient id="_åçûìÿííûé_ãðàäèåíò_280-25" x1="134.79" y1="260.47" x2="321.05" y2="260.71" xlink:href="#_åçûìÿííûé_ãðàäèåíò_280"/><linearGradient id="_åçûìÿííûé_ãðàäèåíò_280-26" x1="134.78" y1="273.44" x2="321.03" y2="273.67" xlink:href="#_åçûìÿííûé_ãðàäèåíò_280"/><linearGradient id="_åçûìÿííûé_ãðàäèåíò_280-27" x1="134.78" y1="262.98" x2="321.04" y2="263.22" xlink:href="#_åçûìÿííûé_ãðàäèåíò_280"/><linearGradient id="_åçûìÿííûé_ãðàäèåíò_280-28" x1="134.8" y1="259.4" x2="321.04" y2="259.64" gradientTransform="translate(87.12 -72.98) rotate(16.16)" xlink:href="#_åçûìÿííûé_ãðàäèåíò_280"/><linearGradient id="_åçûìÿííûé_ãðàäèåíò_280-29" x1="134.78" y1="269.32" x2="321.03" y2="269.55" gradientTransform="translate(88.16 -72.2) rotate(15.72)" xlink:href="#_åçûìÿííûé_ãðàäèåíò_280"/><linearGradient id="_åçûìÿííûé_ãðàäèåíò_280-30" x1="134.79" y1="260.46" x2="321.04" y2="260.7" gradientTransform="translate(37.81 -38.23) rotate(6.92)" xlink:href="#_åçûìÿííûé_ãðàäèåíò_280"/><linearGradient id="_åçûìÿííûé_ãðàäèåíò_280-31" x1="134.78" y1="273.29" x2="321.03" y2="273.53" gradientTransform="translate(40.39 -38.54) rotate(6.93)" xlink:href="#_åçûìÿííûé_ãðàäèåíò_280"/><linearGradient id="_åçûìÿííûé_ãðàäèåíò_280-32" x1="134.8" y1="265.94" x2="321.03" y2="266.17" gradientTransform="translate(39.13 -38.52) rotate(6.97)" xlink:href="#_åçûìÿííûé_ãðàäèåíò_280"/><linearGradient id="_åçûìÿííûé_ãðàäèåíò_280-33" x1="134.79" y1="260.07" x2="321.05" y2="260.31" gradientTransform="translate(191.49 -56.08) rotate(36.11)" xlink:href="#_åçûìÿííûé_ãðàäèåíò_280"/><linearGradient id="_åçûìÿííûé_ãðàäèåíò_280-34" x1="134.77" y1="272.41" x2="321.03" y2="272.65" gradientTransform="translate(196.45 -42.58) rotate(36.11)" xlink:href="#_åçûìÿííûé_ãðàäèåíò_280"/><linearGradient id="_åçûìÿííûé_ãðàäèåíò_280-35" x1="134.78" y1="265.55" x2="321.04" y2="265.79" gradientTransform="translate(193.73 -50.09) rotate(36.11)" xlink:href="#_åçûìÿííûé_ãðàäèåíò_280"/><linearGradient id="_åçûìÿííûé_ãðàäèåíò_280-36" x1="134.78" y1="262.88" x2="321.05" y2="263.12" gradientTransform="translate(222.5 -58.11) rotate(41.12)" xlink:href="#_åçûìÿííûé_ãðàäèåíò_280"/><linearGradient id="_åçûìÿííûé_ãðàäèåíò_280-37" x1="134.79" y1="259.41" x2="321.05" y2="259.64" xlink:href="#_åçûìÿííûé_ãðàäèåíò_280"/><linearGradient id="_åçûìÿííûé_ãðàäèåíò_280-38" x1="134.77" y1="268.74" x2="321.04" y2="268.97" xlink:href="#_åçûìÿííûé_ãðàäèåíò_280"/><linearGradient id="_åçûìÿííûé_ãðàäèåíò_280-39" x1="134.78" y1="260.5" x2="321.05" y2="260.74" gradientTransform="translate(236.42 -65.51) rotate(43.42)" xlink:href="#_åçûìÿííûé_ãðàäèåíò_280"/><linearGradient id="_åçûìÿííûé_ãðàäèåíò_280-40" x1="134.77" y1="272.6" x2="321.03" y2="272.84" gradientTransform="translate(273.06 -45.82) rotate(48.96)" xlink:href="#_åçûìÿííûé_ãðàäèåíò_280"/><linearGradient id="_åçûìÿííûé_ãðàäèåíò_280-41" x1="134.78" y1="265.64" x2="321.04" y2="265.88" gradientTransform="translate(238.85 -60) rotate(43.42)" xlink:href="#_åçûìÿííûé_ãðàäèåíò_280"/><linearGradient id="_åçûìÿííûé_ãðàäèåíò_280-42" x1="134.78" y1="262.9" x2="321.04" y2="263.14" gradientTransform="translate(277.76 -62.26) rotate(50.15)" xlink:href="#_åçûìÿííûé_ãðàäèåíò_280"/><linearGradient id="_åçûìÿííûé_ãðàäèåíò_280-43" x1="134.77" y1="268.99" x2="321.04" y2="269.23" xlink:href="#_åçûìÿííûé_ãðàäèåíò_280"/><linearGradient id="_åçûìÿííûé_ãðàäèåíò_280-44" x1="134.78" y1="265.71" x2="321.04" y2="265.95" gradientTransform="translate(324.83 -54.76) rotate(57.67)" xlink:href="#_åçûìÿííûé_ãðàäèåíò_280"/><linearGradient id="_åçûìÿííûé_ãðàäèåíò_280-45" x1="134.77" y1="270.81" x2="321.04" y2="271.05" xlink:href="#_åçûìÿííûé_ãðàäèåíò_280"/><linearGradient id="_åçûìÿííûé_ãðàäèåíò_280-46" x1="134.78" y1="260.45" x2="321.05" y2="260.69" xlink:href="#_åçûìÿííûé_ãðàäèåíò_280"/><linearGradient id="_åçûìÿííûé_ãðàäèåíò_280-47" x1="134.79" y1="259.47" x2="321.04" y2="259.71" gradientTransform="translate(354.59 -58.13) rotate(63.03)" xlink:href="#_åçûìÿííûé_ãðàäèåíò_280"/><linearGradient id="_åçûìÿííûé_ãðàäèåíò_280-48" x1="134.77" y1="268.9" x2="321.04" y2="269.13" gradientTransform="translate(372.09 -43.58) rotate(65.03)" xlink:href="#_åçûìÿííûé_ãðàäèåíò_280"/><linearGradient id="_åçûìÿííûé_ãðàäèåíò_280-49" x1="134.78" y1="262.92" x2="321.04" y2="263.16" xlink:href="#_åçûìÿííûé_ãðàäèåíò_280"/><linearGradient id="_åçûìÿííûé_ãðàäèåíò_280-50" x1="134.78" y1="265.79" x2="321.04" y2="266.03" xlink:href="#_åçûìÿííûé_ãðàäèåíò_280"/><linearGradient id="_åçûìÿííûé_ãðàäèåíò_280-51" x1="134.78" y1="260.41" x2="321.05" y2="260.65" xlink:href="#_åçûìÿííûé_ãðàäèåíò_280"/><linearGradient id="_åçûìÿííûé_ãðàäèåíò_280-52" x1="134.77" y1="262.95" x2="321.05" y2="263.18" gradientTransform="translate(454.03 -20.08) rotate(79.66)" xlink:href="#_åçûìÿííûé_ãðàäèåíò_280"/><linearGradient id="_åçûìÿííûé_ãðàäèåíò_280-53" x1="134.78" y1="259.48" x2="321.05" y2="259.71" gradientTransform="translate(450.88 -23.58) rotate(79.66)" xlink:href="#_åçûìÿííûé_ãðàäèåíò_280"/><linearGradient id="_åçûìÿííûé_ãðàäèåíò_280-54" x1="134.77" y1="269.09" x2="321.04" y2="269.33" xlink:href="#_åçûìÿííûé_ãðàäèåíò_280"/><linearGradient id="_åçûìÿííûé_ãðàäèåíò_280-55" x1="134.81" y1="260.4" x2="321.03" y2="260.63" gradientTransform="translate(4.61 -8.22)" xlink:href="#_åçûìÿííûé_ãðàäèåíò_280"/><linearGradient id="_åçûìÿííûé_ãðàäèåíò_280-56" x1="134.78" y1="265.86" x2="321.04" y2="266.1" gradientTransform="translate(5.01 -8.23)" xlink:href="#_åçûìÿííûé_ãðàäèåíò_280"/><linearGradient id="_åçûìÿííûé_ãðàäèåíò_280-57" x1="134.79" y1="259.48" x2="321.04" y2="259.72" gradientTransform="translate(20.75 -23.44) rotate(3.48)" xlink:href="#_åçûìÿííûé_ãðàäèåíò_280"/><linearGradient id="_åçûìÿííûé_ãðàäèåíò_280-58" x1="134.79" y1="269.13" x2="321.03" y2="269.37" gradientTransform="translate(21.16 -22.8) rotate(3.31)" xlink:href="#_åçûìÿííûé_ãðàäèåíò_280"/><linearGradient id="_åçûìÿííûé_ãðàäèåíò_280-59" x1="134.8" y1="262.96" x2="321.03" y2="263.2" gradientTransform="translate(20.76 -23.09) rotate(3.39)" xlink:href="#_åçûìÿííûé_ãðàäèåíò_280"/><linearGradient id="_åçûìÿííûé_ãðàäèåíò_280-60" x1="113.42" y1="281.3" x2="329" y2="281.3" xlink:href="#_åçûìÿííûé_ãðàäèåíò_280"/><linearGradient id="_åçûìÿííûé_ãðàäèåíò_50-4" x1="390.22" y1="116.71" x2="390.22" y2="64.29" gradientTransform="translate(692.7 219.77) rotate(-168.31)" xlink:href="#_åçûìÿííûé_ãðàäèåíò_50"/><radialGradient id="_åçûìÿííûé_ãðàäèåíò_108" cx="390.69" cy="89.18" fx="390.69" fy="89.18" r="21.88" gradientTransform="translate(353.68 453.22) rotate(-106.51)" gradientUnits="userSpaceOnUse"><stop offset=".23" stop-color="#000"/><stop offset=".52" stop-color="#000101"/><stop offset=".62" stop-color="#040508"/><stop offset=".69" stop-color="#0a0c14"/><stop offset=".75" stop-color="#121625"/><stop offset=".81" stop-color="#1e243b"/><stop offset=".85" stop-color="#2b3456"/><stop offset=".89" stop-color="#3c4877"/><stop offset=".93" stop-color="#4f5f9c"/><stop offset=".96" stop-color="#657ac7"/><stop offset=".99" stop-color="#7c96f5"/><stop offset="1" stop-color="#819cff"/></radialGradient><linearGradient id="_åçûìÿííûé_ãðàäèåíò_50-5" x1="369.21" y1="116.71" x2="369.21" y2="107.19" gradientTransform="translate(692.7 219.77) rotate(-168.31)" xlink:href="#_åçûìÿííûé_ãðàäèåíò_50"/><linearGradient id="_åçûìÿííûé_ãðàäèåíò_244-2" x1="321.71" y1="102.15" x2="358.43" y2="102.15" gradientTransform="translate(669.95 217.48) rotate(-163.49)" xlink:href="#_åçûìÿííûé_ãðàäèåíò_244"/><radialGradient id="_åçûìÿííûé_ãðàäèåíò_204-2" cx="390.69" cy="89.19" fx="390.69" fy="89.19" r="26.21" gradientTransform="translate(692.7 219.77) rotate(-168.31)" xlink:href="#_åçûìÿííûé_ãðàäèåíò_204"/><linearGradient id="_åçûìÿííûé_ãðàäèåíò_225" x1="343.16" y1="129.33" x2="371.86" y2="129.33" gradientTransform="translate(692.7 219.77) rotate(-168.31)" gradientUnits="userSpaceOnUse"><stop offset="0" stop-color="#000"/><stop offset="1" stop-color="#bd9f65"/></linearGradient><linearGradient id="_åçûìÿííûé_ãðàäèåíò_129" x1="388.67" y1="110.96" x2="388.67" y2="67.28" gradientTransform="translate(692.7 219.77) rotate(-168.31)" gradientUnits="userSpaceOnUse"><stop offset="0" stop-color="#000"/><stop offset="1" stop-color="#959f9a"/></linearGradient><radialGradient id="_åçûìÿííûé_ãðàäèåíò_13-3" cx="104.6" cy="73.47" fx="104.6" fy="73.47" r="20.65" gradientTransform="translate(-13.03 14.03) rotate(-11.53)" xlink:href="#_åçûìÿííûé_ãðàäèåíò_13"/><linearGradient id="_åçûìÿííûé_ãðàäèåíò_38" x1="104.6" y1="88.66" x2="104.6" y2="58.27" gradientTransform="translate(-13.03 14.03) rotate(-11.53)" gradientUnits="userSpaceOnUse"><stop offset=".02" stop-color="#ede9f3"/><stop offset="1" stop-color="#f3e6ee"/></linearGradient><linearGradient id="_åçûìÿííûé_ãðàäèåíò_36" x1="104.6" y1="87.44" x2="104.6" y2="59.5" gradientTransform="translate(-13.03 14.03) rotate(-11.53)" gradientUnits="userSpaceOnUse"><stop offset=".02" stop-color="#d4cbe2"/><stop offset="1" stop-color="#f3e6ee"/></linearGradient><radialGradient id="_åçûìÿííûé_ãðàäèåíò_192" cx="104.6" cy="72.59" fx="104.6" fy="72.59" r="9.92" gradientTransform="translate(-13.03 14.03) rotate(-11.53)" gradientUnits="userSpaceOnUse"><stop offset="0" stop-color="aqua"/><stop offset=".99" stop-color="#26a9ff"/></radialGradient><radialGradient id="_åçûìÿííûé_ãðàäèåíò_13-4" cx="258.22" cy="60.33" fx="258.22" fy="60.33" r="23.73" gradientTransform="translate(20.59 -37.64) rotate(12.84)" xlink:href="#_åçûìÿííûé_ãðàäèåíò_13"/><linearGradient id="_åçûìÿííûé_ãðàäèåíò_38-2" x1="258.22" y1="77.79" x2="258.22" y2="42.86" gradientTransform="translate(20.59 -37.64) rotate(12.84)" xlink:href="#_åçûìÿííûé_ãðàäèåíò_38"/><linearGradient id="_åçûìÿííûé_ãðàäèåíò_36-2" x1="258.22" y1="76.38" x2="258.22" y2="44.27" gradientTransform="translate(20.59 -37.64) rotate(12.84)" xlink:href="#_åçûìÿííûé_ãðàäèåíò_36"/><radialGradient id="_åçûìÿííûé_ãðàäèåíò_192-2" cx="249.22" cy="59.96" fx="249.22" fy="59.96" r="7.56" gradientTransform="translate(20.59 -37.64) rotate(12.84)" xlink:href="#_åçûìÿííûé_ãðàäèåíò_192"/><radialGradient id="_åçûìÿííûé_ãðàäèåíò_192-3" cx="98.2" cy="59.76" fx="98.2" fy="59.76" r="7.56" gradientTransform="translate(377.04 43.84) rotate(-167.16) scale(1 -1)" xlink:href="#_åçûìÿííûé_ãðàäèåíò_192"/><linearGradient id="_åçûìÿííûé_ãðàäèåíò_50-6" x1="76.71" y1="234.63" x2="134.99" y2="234.63" xlink:href="#_åçûìÿííûé_ãðàäèåíò_50"/><linearGradient id="_åçûìÿííûé_ãðàäèåíò_50-7" x1="76.78" y1="232.32" x2="134.98" y2="232.32" xlink:href="#_åçûìÿííûé_ãðàäèåíò_50"/><linearGradient id="_åçûìÿííûé_ãðàäèåíò_59" x1="106.93" y1="228.95" x2="106.93" y2="215.42" gradientTransform="matrix(1, 0, 0, 1, 0, 0)" gradientUnits="userSpaceOnUse"><stop offset="0" stop-color="#6d47d3"/><stop offset=".99" stop-color="#713592"/></linearGradient><radialGradient id="_åçûìÿííûé_ãðàäèåíò_204-3" cx="106.72" cy="221.94" fx="106.72" fy="221.94" r="16.25" gradientTransform="matrix(1, 0, 0, 1, 0, 0)" xlink:href="#_åçûìÿííûé_ãðàäèåíò_204"/><radialGradient id="_åçûìÿííûé_ãðàäèåíò_192-4" cx="15.25" cy="175.34" fx="15.25" fy="175.34" r="6.55" gradientTransform="translate(275.76 205.31) rotate(90)" xlink:href="#_åçûìÿííûé_ãðàäèåíò_192"/><radialGradient id="_åçûìÿííûé_ãðàäèåíò_192-5" cx="17.64" cy="165.53" fx="17.64" fy="165.53" r="7.38" gradientTransform="translate(275.76 205.31) rotate(90)" xlink:href="#_åçûìÿííûé_ãðàäèåíò_192"/><linearGradient id="_åçûìÿííûé_ãðàäèåíò_65" x1="102.48" y1="244.99" x2="102.48" y2="228.63" gradientTransform="matrix(1, 0, 0, 1, 0, 0)" gradientUnits="userSpaceOnUse"><stop offset="0" stop-color="#000"/><stop offset="1" stop-color="#fff"/></linearGradient><linearGradient id="_åçûìÿííûé_ãðàäèåíò_50-8" x1="224.47" y1="209.52" x2="291.89" y2="209.52" gradientTransform="translate(226.89 -182.4) rotate(102.39) scale(1 -1)" xlink:href="#_åçûìÿííûé_ãðàäèåíò_50"/><linearGradient id="_åçûìÿííûé_ãðàäèåíò_50-9" x1="224.56" y1="206.87" x2="291.88" y2="206.87" gradientTransform="translate(226.89 -182.4) rotate(102.39) scale(1 -1)" xlink:href="#_åçûìÿííûé_ãðàäèåíò_50"/><linearGradient id="_åçûìÿííûé_ãðàäèåíò_59-2" x1="260.96" y1="200.45" x2="260.96" y2="184.94" gradientTransform="translate(226.89 -182.4) rotate(102.39) scale(1 -1)" xlink:href="#_åçûìÿííûé_ãðàäèåíò_59"/><radialGradient id="_åçûìÿííûé_ãðàäèåíò_204-4" cx="260.72" cy="192.42" fx="260.72" fy="192.42" r="18.63" gradientTransform="translate(226.89 -182.4) rotate(102.39) scale(1 -1)" xlink:href="#_åçûìÿííûé_ãðàäèåíò_204"/><radialGradient id="_åçûìÿííûé_ãðàäèåíò_192-6" cx="-80.24" cy="22.56" fx="-80.24" fy="22.56" r="7.5" gradientTransform="translate(275.61 110.11) rotate(-167.03)" xlink:href="#_åçûìÿííûé_ãðàäèåíò_192"/><radialGradient id="_åçûìÿííûé_ãðàäèåíò_192-7" cx="-83.1" cy="11.34" fx="-83.1" fy="11.34" r="8.46" gradientTransform="translate(275.61 110.11) rotate(-167.03)" xlink:href="#_åçûìÿííûé_ãðàäèåíò_192"/><linearGradient id="_åçûìÿííûé_ãðàäèåíò_65-2" x1="254.74" y1="223.95" x2="254.74" y2="200.08" gradientTransform="translate(226.89 -182.4) rotate(102.39) scale(1 -1)" xlink:href="#_åçûìÿííûé_ãðàäèåíò_65"/><linearGradient id="_åçûìÿííûé_ãðàäèåíò_113" x1="120.31" y1="133.72" x2="156.25" y2="133.72" gradientTransform="translate(61.82 186.59) rotate(-92.67)" gradientUnits="userSpaceOnUse"><stop offset="0" stop-color="#95699e"/><stop offset="1" stop-color="#784aa6"/></linearGradient><radialGradient id="_åçûìÿííûé_ãðàäèåíò_105" cx="142.11" cy="132.92" fx="142.11" fy="132.92" r="17.25" gradientTransform="translate(61.82 186.59) rotate(-92.67)" gradientUnits="userSpaceOnUse"><stop offset="0" stop-color="#dcc5d9"/><stop offset="1" stop-color="#b3a9e4"/></radialGradient><radialGradient id="_åçûìÿííûé_ãðàäèåíò_110" cx="143.15" cy="130.49" fx="143.15" fy="130.49" r="21.83" gradientTransform="translate(61.82 186.59) rotate(-92.67)" gradientUnits="userSpaceOnUse"><stop offset="0" stop-color="#caa7c5"/><stop offset="1" stop-color="#9a8ed5"/></radialGradient><linearGradient id="_åçûìÿííûé_ãðàäèåíò_65-3" x1="204.2" y1="87.28" x2="204.2" y2="67.84" gradientTransform="translate(-16.34 47.18) rotate(-20.12)" xlink:href="#_åçûìÿííûé_ãðàäèåíò_65"/><radialGradient id="_åçûìÿííûé_ãðàäèåíò_192-8" cx="185.44" cy="31.85" fx="185.44" fy="31.85" r="10.85" gradientTransform="matrix(1, 0, 0, 1, 0, 0)" xlink:href="#_åçûìÿííûé_ãðàäèåíò_192"/><linearGradient id="_åçûìÿííûé_ãðàäèåíò_10" x1="359.46" y1="210.61" x2="352.54" y2="151.21" gradientTransform="translate(64.94 -64.56) rotate(15.07)" gradientUnits="userSpaceOnUse"><stop offset="0" stop-color="#c93347"/><stop offset="1" stop-color="#ff7527"/></linearGradient><linearGradient id="_åçûìÿííûé_ãðàäèåíò_10-2" x1="352.75" y1="210.83" x2="352.75" y2="149.97" xlink:href="#_åçûìÿííûé_ãðàäèåíò_10"/><linearGradient id="_åçûìÿííûé_ãðàäèåíò_135-3" x1="308.46" y1="252.38" x2="303.98" y2="213.96" gradientTransform="translate(183.47 -248.48) rotate(19.3) scale(1 1.57)" xlink:href="#_åçûìÿííûé_ãðàäèåíò_135"/></defs><g class="cls-74"><g id="devops"><g><g><path class="cls-26" d="M320.02,96.11l-3.36,80.66-1.18,28.38c-.14,3.05-2.65,5.45-5.7,5.45H112.88c-3.08,0-5.6-2.44-5.71-5.51l-3.47-109.05c-.12-3.22,2.48-5.91,5.7-5.91h204.92c3.26,0,5.85,2.73,5.7,5.98Z"/><polygon class="cls-18" points="111.57 96.41 113.32 197.17 309.89 196.97 313.49 96 111.57 96.41"/><path class="cls-5" d="M107.18,205.08v-2.5l208.48-1.21-.17,3.77s.06,5.05-5.71,5.45H112.88s-5.53-.31-5.71-5.51Z"/><circle class="cls-121" cx="297.27" cy="205.98" r="1.7"/><polygon class="cls-42" points="192.9 210.59 197.31 231.37 223.35 231.37 227.62 210.59 192.9 210.59"/><polygon class="cls-15" points="194.43 217.82 225.49 220.98 227.62 210.59 192.9 210.59 194.43 217.82"/><rect class="cls-109" x="177.78" y="231.37" width="63.57" height="3.97"/><polygon class="cls-20" points="241.34 231.37 223.78 229.25 196.86 229.25 177.78 231.37 241.34 231.37"/><polygon class="cls-29" points="226.35 235.33 226.35 231.37 240.23 231.37 239.37 235.33 226.35 235.33"/><path class="cls-29" d="M320.02,96.11l-3.36,80.66-1.01,8.19-3.57-4.61,3-85.54h-104.7l-4.67-4.68h108.6c3.26,0,5.86,2.72,5.71,5.98Z"/><polygon class="cls-13" points="216.67 96.2 310.97 164.24 313.49 96 216.67 96.2"/><path class="cls-29" d="M105.84,163.12l5.73,4.01,1,30.72h49.48l11.49,12.75h-60.65s-4.49,.2-5.71-4.61l-1.34-42.87Z"/><polygon class="cls-13" points="112.85 170.14 152.83 197.13 113.32 197.17 112.85 170.14"/><g><rect class="cls-50" x="121.06" y="109.39" width="25.42" height="2.33"/><rect class="cls-50" x="121.06" y="113.67" width="38.35" height="2.33"/><rect class="cls-50" x="121.06" y="105.28" width="25.42" height="2.33"/><rect class="cls-50" x="121.06" y="100.61" width="15.25" height="2.33"/><rect class="cls-50" x="148.1" y="109.25" width="3.25" height="2.33"/><rect class="cls-50" x="121.06" y="122.4" width="25.42" height="2.33"/><rect class="cls-50" x="121.06" y="126.68" width="21.7" height="2.33"/><rect class="cls-50" x="143.48" y="126.68" width="21.7" height="2.33"/><rect class="cls-50" x="121.06" y="118.29" width="25.42" height="2.33"/><rect class="cls-50" x="148.1" y="122.26" width="3.25" height="2.33"/><rect class="cls-50" x="138.24" y="100.61" width="15.25" height="2.33"/></g><g><rect class="cls-50" x="121.06" y="140.08" width="25.42" height="2.33"/><rect class="cls-50" x="121.06" y="144.36" width="38.35" height="2.33"/><rect class="cls-50" x="121.06" y="135.97" width="25.42" height="2.33"/><rect class="cls-50" x="121.06" y="131.3" width="15.25" height="2.33"/><rect class="cls-50" x="148.1" y="139.94" width="3.25" height="2.33"/><rect class="cls-50" x="121.06" y="153.09" width="25.42" height="2.33"/><rect class="cls-50" x="121.06" y="157.37" width="21.7" height="2.33"/><rect class="cls-50" x="143.48" y="157.37" width="21.7" height="2.33"/><rect class="cls-50" x="121.06" y="148.98" width="25.42" height="2.33"/><rect class="cls-50" x="148.1" y="152.95" width="3.25" height="2.33"/><rect class="cls-50" x="121.06" y="183.7" width="25.42" height="2.33"/><rect class="cls-50" x="121.06" y="187.98" width="21.7" height="2.33"/><rect class="cls-50" x="143.48" y="187.98" width="21.7" height="2.33"/><rect class="cls-50" x="121.06" y="179.59" width="25.42" height="2.33"/><rect class="cls-50" x="148.1" y="183.56" width="3.25" height="2.33"/><rect class="cls-50" x="121.06" y="162.47" width="17.7" height="2.33"/><rect class="cls-50" x="121.06" y="171.2" width="12.71" height="2.33"/><rect class="cls-50" x="121.06" y="175.48" width="21.7" height="2.33"/><rect class="cls-50" x="143.48" y="175.48" width="21.7" height="2.33"/><rect class="cls-50" x="121.06" y="167.08" width="25.42" height="2.33"/><rect class="cls-50" x="136.31" y="171.06" width="15.05" height="2.33"/><rect class="cls-50" x="148.1" y="162.47" width="3.25" height="2.33"/><rect class="cls-50" x="138.24" y="131.3" width="15.25" height="2.33"/></g><polygon class="cls-50" points="175.86 105.67 176.4 111.12 248.65 111.02 249.9 105.67 175.86 105.67"/></g><path class="cls-14" d="M307.51,110.44l6.06-5.54s13.43-.09,20.45-1.07v9.23s-10.26,2.26-19.94,1.82l-6.58-4.44Z"/><polygon class="cls-33" points="307.51 128.15 312.73 124.03 331.85 125.22 330.05 134.43 312.37 132.68 307.51 128.15"/><path class="cls-43" d="M313.05,153.78l-2.09,16.3s13.01,.91,24.08,4.66l3.36-18.22s-8.97-3.18-25.35-2.74Z"/><polygon class="cls-27" points="317.62 153.68 316.92 170.65 310.97 170.08 313.05 153.78 317.62 153.68"/><polygon class="cls-27" points="318.47 133.28 318.84 124.41 312.73 124.03 307.51 128.15 312.37 132.68 318.47 133.28"/><polygon class="cls-27" points="319.66 104.8 319.24 114.98 314.09 114.87 307.51 110.44 313.58 104.9 319.66 104.8"/><g><path class="cls-34" d="M104.98,133.56c10.28,2,19.34,9.07,23.42,19.55,6.33,16.26-1.72,34.57-17.97,40.89-1.21,.47-2.44,.87-3.67,1.18l-1.77-61.61Z"/><circle class="cls-69" cx="89.53" cy="144.65" r="36.24" transform="translate(-79.53 163.52) rotate(-64.62)"/><ellipse class="cls-63" cx="89.23" cy="143.8" rx="36.2" ry="35.35" transform="translate(-43.1 38.3) rotate(-19.62)"/><path class="cls-13" d="M82.2,114.24l-.81-4.92s14.9-4.15,27.28,4.33l-3.56,4-22.91-3.41Z"/><path class="cls-13" d="M70.91,168.41l-1.91,5.05s3.97,3.34,9.99,4.47l1.43-5.12-9.51-4.41Z"/><ellipse class="cls-69" cx="89.18" cy="143.68" rx="30.81" ry="30.07" transform="translate(-43.07 38.29) rotate(-19.62)"/><path class="cls-40" d="M118.44,133.98c5.45,15.29-3.13,32.32-19.15,38.03-16.03,5.71-33.45-2.05-38.9-17.34-.34-.95-.62-1.9-.85-2.85,0,0-.02-.07-.05-.2-.04-.19-.08-.37-.12-.56h0c-3.03-14.29,5.42-29.16,20.19-34.43,11.9-4.24,24.57-1.05,32.53,7.14,1.42,1.46,2.68,3.07,3.77,4.83t.01,.01h0c1.03,1.67,1.89,3.46,2.57,5.37Z"/><path class="cls-21" d="M91.37,143.63c.37,1.03-.21,2.18-1.29,2.57-1.08,.39-2.26-.14-2.63-1.17-.37-1.03,.21-2.18,1.29-2.57,1.08-.39,2.26,.14,2.63,1.17Z"/><g><path class="cls-73" d="M78.55,120.09l2.5,7.03-1.25,.44-2.08-5.83-.7,.25-.42-1.19,1.95-.69Z"/><path class="cls-73" d="M87.16,123.59l.42,1.19-4.9,1.74,.25-.52c.45-.95,.8-1.72,1.04-2.31,.24-.59,.42-1.15,.52-1.7,.11-.54,.09-1.02-.06-1.43-.14-.38-.36-.64-.67-.76-.31-.12-.63-.12-.98,0-.38,.13-.63,.35-.76,.63-.13,.29-.15,.56-.05,.82,.16,.44,.42,.76,.81,.95l-.51,.96c-.31-.05-.6-.23-.89-.54-.29-.31-.49-.61-.59-.91-.14-.39-.17-.8-.09-1.22,.08-.42,.28-.81,.6-1.16,.32-.35,.74-.62,1.28-.81,.45-.16,.88-.2,1.31-.11,.43,.08,.8,.27,1.11,.54,.32,.28,.55,.62,.69,1.03,.14,.4,.19,.84,.15,1.3-.04,.46-.13,.91-.27,1.34-.14,.43-.34,1.01-.62,1.72l2.2-.79Z"/></g><path class="cls-73" d="M96.72,165.07c.39,.08,.75,.26,1.07,.53,.32,.27,.56,.62,.71,1.05,.17,.47,.2,.94,.1,1.38-.11,.44-.32,.84-.63,1.17-.32,.33-.69,.58-1.12,.73-.49,.17-.97,.21-1.45,.12-.48-.09-.91-.32-1.29-.68-.38-.36-.68-.84-.89-1.43-.29-.82-.28-1.71,.05-2.65,.33-.94,.85-1.87,1.56-2.78l1.15,.61c-.5,.48-.88,.99-1.15,1.52-.26,.54-.42,1.05-.46,1.53,.24-.48,.65-.82,1.24-1.03,.35-.13,.73-.15,1.12-.07Zm.46,3.09c.16-.32,.17-.67,.03-1.05-.13-.37-.36-.62-.68-.75-.32-.13-.66-.14-1.03,0-.36,.13-.62,.34-.79,.64-.17,.3-.21,.59-.1,.88l.08,.21c.08,.21,.2,.39,.38,.54,.18,.14,.39,.24,.62,.28,.24,.04,.47,.02,.7-.06,.37-.13,.63-.36,.79-.68Z"/><path class="cls-73" d="M65.73,148.39c.47,.08,.89,.27,1.26,.57,.37,.3,.64,.69,.81,1.17,.25,.7,.31,1.39,.19,2.07-.13,.68-.36,1.31-.7,1.9-.34,.58-.78,1.23-1.32,1.93l-1.15-.61c.47-.46,.86-.93,1.18-1.4,.32-.47,.54-.92,.68-1.33-.24,.33-.61,.59-1.1,.76-.36,.13-.73,.15-1.12,.07-.39-.08-.74-.26-1.07-.53-.32-.27-.56-.62-.71-1.04-.18-.51-.22-1-.13-1.47,.1-.47,.3-.87,.61-1.21,.31-.34,.68-.59,1.12-.75,.48-.17,.96-.22,1.43-.14Zm-1.09,3.83c.33,.15,.67,.16,1.04,.03,.36-.13,.63-.35,.79-.66,.16-.31,.19-.63,.07-.95l-.08-.21c-.13-.35-.36-.6-.69-.75-.33-.16-.68-.17-1.03-.05-.36,.13-.62,.36-.78,.69-.16,.33-.17,.69-.02,1.1,.14,.39,.37,.66,.7,.81Z"/><path class="cls-73" d="M112.74,134.85c.44,.23,.77,.67,1.01,1.34,.17,.49,.21,.96,.12,1.4-.1,.45-.3,.84-.61,1.17-.31,.34-.69,.58-1.14,.74-.35,.12-.73,.18-1.14,.16-.41-.01-.76-.1-1.06-.26l.26-1.25c.19,.11,.43,.19,.7,.23,.27,.04,.53,.01,.77-.07,.35-.12,.6-.35,.76-.67s.17-.69,.03-1.08c-.13-.36-.34-.61-.63-.75-.29-.14-.62-.14-.99-.01-.18,.07-.33,.13-.45,.2-.11,.06-.24,.14-.37,.24l-.04-.02,.57-2.82-1.96,.7-.42-1.19,3.75-1.34-.58,3.11c.52-.12,.99-.07,1.43,.16Z"/><path class="cls-2" d="M87.89,145.3s1.18,1.66,3.73,1.66l8.24-22.66s-.32-.5-1.46-.65l-10.51,21.65Z"/><path class="cls-1" d="M87.3,143.84s1.18,1.66,3.73,1.66l8.24-22.66s-.32-.5-1.46-.65l-10.51,21.65Z"/><rect class="cls-93" x="71.65" y="156.15" width="22.19" height=".84" transform="translate(-94.21 149.78) rotate(-59.95)"/><path class="cls-2" d="M87.92,144.32s1.13,2.09,2.29,3.55l15.32-5.79s.14-.41-.3-1.13l-17.31,3.37Z"/><path class="cls-30" d="M87.92,143.52s-.11,2.56,1.06,4.01l16.55-6.26s.14-.41-.3-1.13l-17.31,3.37Z"/><path class="cls-3" d="M92.64,143.54c.61,1.72-.28,3.61-2,4.22-1.72,.61-3.61-.28-4.22-2-.61-1.72,.28-3.61,2-4.22s3.61,.28,4.22,2Z"/><path class="cls-36" d="M91.03,144.11c.3,.83-.14,1.75-.97,2.04s-1.75-.14-2.04-.97c-.3-.83,.14-1.75,.97-2.04s1.75,.14,2.04,.97Z"/><path class="cls-2" d="M112.08,123.77c2.26,2.54,3.56,4.5,3.75,4.81-.66-.78-11.44-13.24-32.8-5.63-22.06,7.86-23.49,28.87-23.49,28.87,0,0-.02-.07-.05-.2-.03-.12-.07-.32-.12-.56h0c-3.03-14.29,5.42-29.16,20.19-34.43,11.9-4.24,24.57-1.05,32.53,7.14Z"/><path class="cls-2" d="M115.86,128.61h0s0,0-.01,0h0Z"/></g><circle class="cls-54" cx="297.27" cy="205.98" r="9.01" transform="translate(-58.59 270.53) rotate(-45)"/><g><polygon class="cls-38" points="110.14 288.03 107.62 283.48 345.27 268.68 344.7 272.48 110.14 288.03"/><polygon class="cls-25" points="107.62 283.48 149.75 258.63 312.66 246.78 345.27 268.68 107.62 283.48"/><polygon class="cls-8" points="117.17 280.64 337.49 266.78 337.94 261.52 309.59 245.86 152.74 257.26 116.76 274.99 117.17 280.64"/><polygon class="cls-19" points="116.76 274.99 337.94 261.52 309.59 245.86 152.74 257.26 116.76 274.99"/><g><polygon class="cls-68" points="331.22 257.81 124.86 271 125.96 270.45 330.45 257.38 331.22 257.81"/><polygon class="cls-65" points="324.4 254.04 133.42 266.78 134.43 266.28 323.63 253.62 324.4 254.04"/><polygon class="cls-102" points="319.89 251.64 139.33 263.87 140.36 263.36 319.25 251.21 319.89 251.64"/><polygon class="cls-120" points="315.19 248.48 145.53 260.82 146.66 260.26 314.55 248.05 315.19 248.48"/><polygon class="cls-128" points="312.66 246.78 150.96 258.14 151.76 257.75 311.4 246.64 312.66 246.78"/><polygon class="cls-64" points="146.58 265.92 146.33 265.52 151.18 262.63 151.21 262.88 151.32 263.07 146.58 265.92"/><rect class="cls-67" x="155.98" y="258.36" width="4.66" height=".47" transform="translate(-110.62 118.55) rotate(-31.02)"/><polygon class="cls-53" points="133.28 273.92 132.14 274.05 139.53 269.61 139.77 270.01 133.28 273.92"/><rect class="cls-57" x="170.12" y="256.07" width="1.37" height=".47" transform="translate(-116.76 145.98) rotate(-35.33)"/><polygon class="cls-77" points="153.11 269.19 153.05 269.2 153.02 268.95 152.89 268.77 158.62 264.68 158.69 264.68 158.71 264.92 158.84 265.11 153.11 269.19"/><polygon class="cls-118" points="162.76 262.31 162.69 262.32 162.67 262.07 162.54 261.89 166.86 258.82 167.14 259.21 162.76 262.31"/><rect class="cls-132" x="313.54" y="250.96" width=".47" height="4.51" transform="translate(-72.36 369.3) rotate(-55.64)"/><rect class="cls-135" x="306" y="246.73" width=".47" height="2.66" transform="translate(-71.34 360.98) rotate(-55.66)"/><polygon class="cls-110" points="326.32 262.4 320.96 258.41 321.23 258.02 327.46 262.28 326.32 262.4"/><rect class="cls-137" x="300.83" y="248.51" width=".47" height="4.95" transform="translate(-84.13 323.48) rotate(-50.48)"/><polygon class="cls-99" points="310.52 259.06 305.95 255.31 306.1 255.13 306.08 254.89 306.17 254.89 306.25 254.95 310.82 258.7 310.52 259.06"/><rect class="cls-62" x="296.42" y="246.55" width=".47" height="1.59" transform="translate(-82.79 319.53) rotate(-50.59)"/><polygon class="cls-80" points="296.94 255.97 296.81 255.97 294.58 253.26 294.95 252.96 297.09 255.58 296.92 255.73 296.94 255.97"/><polygon class="cls-129" points="291.96 250.07 290.63 248.45 291 248.15 292.32 249.77 291.96 250.07"/><polygon class="cls-98" points="303.03 263.65 299.87 259.71 300.24 259.41 303.69 263.6 303.03 263.65"/><polygon class="cls-131" points="283.77 248.9 283.16 247.88 283.57 247.64 284.17 248.66 283.77 248.9"/><rect class="cls-46" x="289.31" y="255.99" width=".47" height="4.48" transform="translate(-91.14 183.4) rotate(-30.61)"/><polygon class="cls-59" points="286.87 253.89 286.71 253.9 284.74 250.56 285.15 250.32 287.04 253.53 286.84 253.65 286.87 253.89"/><rect class="cls-75" x="278.85" y="254.06" width=".47" height="2.97" transform="translate(-84.65 151.21) rotate(-26.47)"/><polygon class="cls-89" points="276.62 251.13 275.79 249.45 276.21 249.24 277.05 250.92 276.62 251.13"/><polygon class="cls-60" points="283.44 264.83 281.46 260.84 281.88 260.63 284.14 264.79 283.44 264.83"/><polygon class="cls-100" points="269.71 254.88 268.56 251.69 269 251.53 270.15 254.72 269.71 254.88"/><rect class="cls-66" x="267.86" y="249.52" width=".47" height=".38" transform="translate(-70.02 108.62) rotate(-20.32)"/><rect class="cls-52" x="271.36" y="257.34" width=".47" height="4.12" transform="translate(-72.02 107.82) rotate(-19.88)"/><rect class="cls-111" x="260.21" y="250.41" width=".47" height="1.81" transform="translate(-43.43 54.72) rotate(-11.08)"/><rect class="cls-47" x="262.7" y="261.92" width=".47" height="4.16" transform="translate(-45.89 55.53) rotate(-11.09)"/><rect class="cls-117" x="261.27" y="255.36" width=".47" height="2.73" transform="translate(-44.62 55.29) rotate(-11.13)"/><rect class="cls-114" x="176.59" y="256.51" width="4.72" height=".47" transform="translate(-123.54 176.49) rotate(-40.26)"/><rect class="cls-76" x="159.77" y="270.02" width="6.49" height=".47" transform="translate(-136.05 169.39) rotate(-40.26)"/><rect class="cls-113" x="169.72" y="262.51" width="4.32" height=".47" transform="translate(-129.1 173.38) rotate(-40.27)"/><rect class="cls-82" x="183.83" y="258.83" width="4.33" height=".47" transform="translate(-128.95 208.92) rotate(-45.28)"/><polygon class="cls-115" points="189.77 255.57 189.68 255.58 189.66 255.34 189.5 255.18 189.63 255.05 189.96 255.39 189.77 255.57"/><polygon class="cls-96" points="177.94 267.54 177.59 267.23 181.55 263.22 181.89 263.55 177.94 267.54"/><rect class="cls-48" x="195.58" y="255.66" width="2.74" height=".47" transform="translate(-124.81 228.64) rotate(-47.57)"/><rect class="cls-95" x="182.89" y="268.61" width="5.14" height=".47" transform="translate(-140.89 255.85) rotate(-53.12)"/><rect class="cls-97" x="190.04" y="261.17" width="3.76" height=".47" transform="translate(-130.51 226.72) rotate(-47.57)"/><rect class="cls-134" x="200.5" y="257.67" width="3.82" height=".47" transform="translate(-125.14 271.85) rotate(-54.31)"/><polygon class="cls-71" points="196.45 266.61 196.07 266.32 196.27 266.04 199.13 262.08 199.51 262.36 196.45 266.61"/><rect class="cls-112" x="208.05" y="259.98" width="3.1" height=".47" transform="translate(-118.74 322.14) rotate(-61.83)"/><polygon class="cls-83" points="206.51 265.55 206.51 265.54 206.98 265.51 206.51 265.55"/><polygon class="cls-79" points="212.2 255.85 211.79 255.63 212.87 253.61 213.1 253.69 213.3 253.81 212.2 255.85"/><rect class="cls-84" x="221.67" y="252.86" width=".06" height=".47" transform="translate(-97.55 359.33) rotate(-67.19)"/><rect class="cls-86" x="215.99" y="262.57" width="4.03" height=".47" transform="translate(-105.1 373.24) rotate(-69.19)"/><polygon class="cls-122" points="219.97 258.29 219.53 258.12 220.71 255.01 221.16 255.18 219.97 258.29"/><polygon class="cls-106" points="228.15 260.37 227.69 260.27 228.29 257.56 228.75 257.66 228.15 260.37"/><polygon class="cls-133" points="229.45 254.54 228.99 254.44 229.43 252.42 229.89 252.55 229.86 252.63 229.45 254.54"/><rect class="cls-85" x="235.32" y="255.25" width="3.16" height=".47" transform="translate(-42.62 463.49) rotate(-83.82)"/><rect class="cls-94" x="237.22" y="251.75" width=".11" height=".47" transform="translate(-38.81 460.73) rotate(-83.82)"/><polygon class="cls-61" points="236.27 263.68 235.8 263.68 236.22 259.72 236.69 259.77 236.27 263.68"/><rect class="cls-78" x="245.02" y="251.35" width=".47" height="1.97" transform="translate(-17.67 18.47) rotate(-4.16)"/><rect class="cls-58" x="245.41" y="256.45" width=".47" height="2.68" transform="translate(-18.07 18.51) rotate(-4.16)"/><rect class="cls-126" x="253.1" y="250.76" width=".47" height=".15" transform="translate(-31.11 35.93) rotate(-7.64)"/><rect class="cls-70" x="254.36" y="258.54" width=".47" height="3.76" transform="translate(-31.68 35.29) rotate(-7.47)"/><rect class="cls-124" x="253.55" y="252.71" width=".47" height="3.19" transform="translate(-31.22 35.55) rotate(-7.55)"/></g><polygon class="cls-87" points="119.73 280.48 119.95 281.88 334 268.52 334.9 266.97 119.73 280.48"/><polygon class="cls-13" points="315.98 268.14 317.03 262.79 333.53 261.79 331.09 267.08 315.98 268.14"/><polygon class="cls-13" points="310.75 270.83 310.18 274.77 331.31 273.37 332.33 269.49 310.75 270.83"/></g><g><circle class="cls-72" cx="328.17" cy="53.28" r="21.88" transform="translate(126.15 317.33) rotate(-61.8)"/><path class="cls-41" d="M323.59,77.75c14.18,2.93,28.04-6.18,30.98-20.36,2.93-14.18-6.18-28.05-20.36-30.98-14.18-2.93-28.05,6.18-30.98,20.36-2.93,14.18,6.18,28.04,20.36,30.98Zm9.74-47.09c11.83,2.45,19.44,14.02,16.99,25.86-2.45,11.83-14.02,19.44-25.86,16.99-11.83-2.45-19.44-14.03-16.99-25.86,2.45-11.83,14.02-19.44,25.86-16.99Z"/><circle class="cls-55" cx="328.17" cy="53.28" r="21.88" transform="translate(126.15 317.33) rotate(-61.8)"/><path class="cls-10" d="M351.62,39.74l7.07-3.83-3.97-5.25-5.9,4.84s.3,3.21,2.81,4.25Z"/><path class="cls-31" d="M358.09,39.02s-5.67-.61-6.65-8.3l31.82-25.34,10.09,13.17-35.27,20.47Z"/><path class="cls-44" d="M393.36,18.55s.32-8.12-10.09-13.17c0,0,3,5.7,10.09,13.17Z"/><path class="cls-32" d="M322.86,78.95c14.18,2.93,28.04-6.18,30.98-20.36s-6.18-28.05-20.36-30.98c-14.18-2.93-28.05,6.18-30.98,20.36-2.93,14.18,6.18,28.04,20.36,30.98Zm9.74-47.09c11.83,2.45,19.44,14.02,16.99,25.86-2.45,11.83-14.02,19.44-25.86,16.99s-19.44-14.03-16.99-25.86c2.45-11.83,14.02-19.44,25.86-16.99Z"/><path class="cls-29" d="M322.75,78.81c1.02,.21,2.04,.36,3.06,.44l.29-3.07c-.9-.07-1.82-.2-2.73-.39-7.59-1.57-13.51-6.82-16.25-13.5l-2.78,1.35c3.15,7.51,9.84,13.4,18.41,15.17Z"/><path class="cls-29" d="M346.15,72.08l-2-2.36c-3.9,3.83-9.13,6.2-14.73,6.47l-.13,3.09c6.39-.23,12.39-2.88,16.86-7.2Z"/><path class="cls-45" d="M384.94,13.49l-32.68,20.23s-.3-.34-.52-1.42l31.58-25.09s.29,3.01,1.62,6.28Z"/><path class="cls-24" d="M342.61,69.71l-12.08-38.18s-5.81-.96-12.02,2.13l-1.53,38.42s7.17,4.52,15.02,2.74c7.85-1.78,10.61-5.11,10.61-5.11Z"/></g><g><g><path class="cls-88" d="M124.57,80.28l-33.04,6.74c-2.28,.46-4.51-.95-5.07-3.21l-6.99-28.4c-.59-2.39,.93-4.78,3.34-5.27l35.06-7.15c2.39-.49,4.71,1.1,5.13,3.51l4.96,28.82c.4,2.3-1.11,4.51-3.4,4.97Z"/><path class="cls-105" d="M120.53,77.28l-26.5,5.4c-1.83,.37-3.62-.76-4.06-2.57l-5.6-22.78c-.47-1.91,.75-3.84,2.68-4.23l28.13-5.73c1.92-.39,3.78,.88,4.11,2.81l3.98,23.12c.32,1.85-.89,3.62-2.73,3.99Z"/><path class="cls-91" d="M119.21,76.3l-24.36,4.97c-1.68,.34-3.33-.7-3.74-2.36l-5.15-20.95c-.43-1.76,.69-3.53,2.46-3.89l25.86-5.27c1.76-.36,3.48,.81,3.78,2.59l3.66,21.25c.29,1.7-.82,3.32-2.51,3.67Z"/><polygon class="cls-51" points="82.82 50.13 87.04 53.09 115.17 47.36 117.89 42.98 82.82 50.13"/><polygon class="cls-49" points="124.57 80.28 120.53 77.28 94.03 82.68 91.54 87.01 124.57 80.28"/></g><path class="cls-6" d="M114.02,64.38l-.73-4.03-2.28,.73c-.34-.76-.81-1.45-1.36-2.05l1.5-1.79-3.37-2.34-1.09,2.13c-.76-.29-1.57-.46-2.41-.49l-.21-2.33-4.03,.73,.73,2.28c-.76,.34-1.45,.81-2.05,1.36l-1.8-1.5-2.34,3.37,2.13,1.09c-.29,.76-.46,1.57-.49,2.41l-2.33,.21,.73,4.03,2.28-.73c.34,.76,.81,1.45,1.36,2.05l-1.5,1.8,3.37,2.34,1.09-2.13c.76,.29,1.57,.46,2.41,.49l.21,2.33,4.03-.73-.73-2.28c.76-.34,1.45-.81,2.05-1.36l1.8,1.5,2.34-3.37-2.13-1.09c.29-.76,.46-1.57,.49-2.41l2.33-.21Zm-9.24,3.87c-2.21,.45-4.36-.97-4.81-3.18-.45-2.21,.97-4.36,3.18-4.81,2.21-.45,4.36,.97,4.81,3.18,.45,2.21-.97,4.36-3.18,4.81Z"/></g><g><g><path class="cls-49" d="M271.25,109.88l-35.13-8.01c-2.42-.55-3.97-2.92-3.52-5.36l5.72-30.73c.48-2.58,3.01-4.25,5.57-3.66l37.28,8.5c2.54,.58,4.1,3.15,3.45,5.67l-7.88,30.24c-.63,2.42-3.07,3.9-5.5,3.34Z"/><path class="cls-81" d="M273.15,104.15l-37.79-8.62c-2.6-.59-4.27-3.14-3.78-5.76l6.16-33.05c.52-2.78,3.24-4.57,6-3.94l40.1,9.14c2.74,.62,4.42,3.39,3.71,6.1l-8.47,32.53c-.68,2.6-3.3,4.19-5.92,3.6Z"/><path class="cls-125" d="M270.34,99.09l-30.31-6.91c-2.09-.48-3.43-2.52-3.04-4.62l4.94-26.51c.41-2.23,2.6-3.66,4.81-3.16l32.17,7.33c2.2,.5,3.54,2.72,2.97,4.9l-6.8,26.09c-.54,2.09-2.65,3.36-4.75,2.88Z"/><path class="cls-130" d="M269.42,97.44l-27.86-6.35c-1.92-.44-3.15-2.31-2.79-4.25l4.54-24.37c.38-2.05,2.39-3.37,4.42-2.9l29.57,6.74c2.02,.46,3.26,2.5,2.73,4.5l-6.25,23.98c-.5,1.92-2.43,3.09-4.36,2.65Z"/><polygon class="cls-51" points="243.74 52.78 246.75 57.89 278.91 65.22 283.84 61.93 243.74 52.78"/><polygon class="cls-49" points="273.15 104.15 270.34 99.09 240.03 92.18 235.37 95.54 273.15 104.15"/></g><g><polygon class="cls-22" points="256.21 68.11 245.01 74.95 252.8 86.28 253.98 84.13 249.1 75.53 256.94 69.47 256.21 68.11"/><polygon class="cls-37" points="266.15 70.38 273.28 81.4 261.35 88.23 261.22 85.79 269.35 80.14 264.91 71.29 266.15 70.38"/></g></g><g><path class="cls-136" d="M77.74,232.12l24.45-7.68c.98-.19,1.99-.21,2.98-.05l28.73,8.48c1.33,.21,1.48,2.07,.2,2.49l-28.9,9.2c-2.01,.67-4.2,.56-6.13-.31l-21.61-9.69c-1.14-.51-.95-2.19,.28-2.44Z"/><polygon class="cls-35" points="76.78 232.83 82.85 220.82 131.19 221.13 134.98 233.99 104.57 243.82 76.78 232.83"/><path class="cls-107" d="M83.48,220.44l20-4.89c.8-.16,1.63-.17,2.44-.04l24.47,5.31c1.09,.17,1.17,1.27,.13,1.61l-24.62,6.16c-1.64,.55-3.43,.46-5.01-.25l-17.62-5.91c-.94-.42-.78-1.79,.23-1.99Z"/><path class="cls-123" d="M85.36,220.4l18.21-4.54c.73-.14,1.48-.16,2.22-.04l22.28,5c.99,.16,1.06,1.08,.11,1.39l-22.41,5.61c-1.5,.5-3.13,.42-4.57-.23l-16.05-5.38c-.85-.38-.71-1.63,.21-1.81Z"/><polygon class="cls-49" points="99.75 244.51 101.65 228.63 83.25 222.43 77.99 234.79 99.75 244.51"/><g><path class="cls-127" d="M106.24,219.18c-.21,0-.47,.01-.76,.06-.29,.04-.69,.12-1.2,.24l-1.86,.42c-.65,.15-1.28,.24-1.89,.27-.6,.03-1.15,.03-1.64,0,.19,.3-.17,.56-1.07,.76l-2.15,.49c-.51,.11-.85,.21-1.05,.27-.19,.07-.27,.13-.25,.18,.02,.05,.15,.11,.37,.18l.65,.19-1.7,.39-1.05-.33c-.51-.16-.86-.29-1.07-.38-.21-.09-.25-.2-.13-.33,.12-.13,.52-.27,1.21-.42l2.64-.59c.52-.12,.87-.25,1.02-.39,.15-.14,.02-.27-.4-.38l1.54-.34c.45,.1,.99,.14,1.62,.11,.63-.03,1.21-.11,1.75-.23l2.68-.6c.65-.14,1.23-.23,1.75-.24,.52-.02,.97,0,1.36,.04,.38,.05,.88,.13,1.51,.24l1.31,.24-1.71,.39-.77-.15c-.27-.05-.51-.08-.72-.09Z"/><path class="cls-116" d="M103.25,224.51c.21,.01,.48-.01,.8-.06,.33-.05,.78-.15,1.36-.29l2.3-.55c.68-.16,1.34-.27,2-.32,.66-.05,1.24-.07,1.74-.04-.09-.34,.37-.63,1.4-.88l2.47-.6c.58-.14,.98-.25,1.2-.33,.22-.08,.3-.14,.26-.19-.05-.05-.2-.1-.47-.15l-.77-.15,1.89-.45,1.31,.24c.64,.12,1.09,.21,1.35,.29,.26,.07,.34,.17,.24,.3-.1,.13-.55,.29-1.33,.48l-3.21,.78c-.67,.16-1.14,.33-1.43,.51-.29,.18-.21,.32,.24,.44l-1.95,.48c-.47-.11-1.07-.13-1.81-.06-.73,.07-1.43,.19-2.1,.35l-3.11,.76c-.79,.19-1.45,.3-1.98,.32-.54,.02-.96,0-1.29-.07-.32-.07-.74-.18-1.23-.34l-1.05-.33,1.87-.45,.65,.19c.23,.07,.44,.11,.65,.12Z"/></g><path class="cls-7" d="M104.87,228.95l.34,15.61s-2.58,1.01-5.46-.04l1.9-15.89s1.41,.87,3.22,.32Z"/></g><g><path class="cls-108" d="M382.79,82.9l-20,26.19c-.46,1.05-.73,2.18-.79,3.32l4.95,33.54c-.09,1.54,1.95,2.16,2.74,.84l20.27-30.09c1.24-2.09,1.66-4.56,1.16-6.94l-5.53-26.58c-.29-1.41-2.22-1.61-2.8-.29Z"/><polygon class="cls-23" points="383.82 82 363.49 86.55 351.95 140.74 367.93 147.44 389.29 115.81 383.82 82"/><path class="cls-90" d="M362.91,87.15l-10.39,21.18c-.37,.86-.59,1.78-.65,2.72l-.07,28.7c-.07,1.26,1.13,1.63,1.77,.54l12.95-26.04c1.02-1.71,1.36-3.73,.95-5.67l-2.28-21.18c-.24-1.15-1.82-1.31-2.29-.24Z"/><path class="cls-92" d="M362.4,89.25l-9.56,19.27c-.34,.78-.54,1.62-.59,2.47l.11,26.17c-.06,1.15,.95,1.46,1.53,.47l11.79-23.71c.93-1.55,1.23-3.4,.87-5.17l-2.08-19.29c-.22-1.05-1.65-1.2-2.08-.21Z"/><polygon class="cls-49" points="391.25 110.59 367.61 109.51 365.2 87.39 385.72 83.83 391.25 110.59"/><g><path class="cls-101" d="M355.9,112.32c.05-.24,.13-.52,.25-.83,.12-.32,.31-.74,.56-1.28l.93-1.98c.33-.7,.58-1.38,.77-2.05,.19-.67,.32-1.28,.41-1.84,.29,.29,.67-.05,1.12-1.01l1.07-2.28c.25-.54,.44-.91,.56-1.1,.12-.2,.21-.28,.26-.24,.05,.04,.09,.19,.11,.46l.06,.77,.85-1.8-.11-1.26c-.06-.61-.11-1.04-.16-1.29-.05-.25-.17-.33-.34-.23-.17,.1-.43,.51-.77,1.25l-1.31,2.81c-.26,.56-.49,.91-.69,1.05-.2,.14-.31-.05-.33-.55l-.76,1.64c0,.53-.09,1.15-.28,1.84-.19,.7-.42,1.33-.68,1.9l-1.33,2.85c-.32,.69-.55,1.32-.7,1.9-.15,.58-.25,1.09-.29,1.53-.04,.44-.07,1.02-.1,1.75l-.05,1.53,.86-1.82,.02-.9c0-.31,.03-.59,.08-.83Z"/><path class="cls-104" d="M362.6,110.29c-.04,.24-.13,.53-.27,.88-.14,.35-.36,.84-.66,1.45l-1.18,2.43c-.35,.72-.63,1.43-.85,2.16-.22,.73-.38,1.37-.48,1.94-.36-.19-.8,.26-1.32,1.35l-1.27,2.62c-.3,.62-.52,1.04-.66,1.27-.14,.22-.23,.31-.27,.25-.04-.06-.06-.25-.05-.56l.02-.9-.97,2-.05,1.53c-.02,.74-.03,1.27-.01,1.58,.02,.31,.11,.42,.28,.34,.17-.09,.46-.54,.87-1.37l1.66-3.4c.34-.71,.65-1.2,.92-1.48,.27-.28,.41-.16,.43,.38l1.01-2.06c0-.55,.12-1.23,.38-2.04,.26-.8,.56-1.56,.91-2.26l1.61-3.3c.41-.83,.69-1.55,.85-2.14,.16-.59,.24-1.08,.24-1.46,0-.38-.02-.87-.08-1.47l-.11-1.25-.96,1.98,.06,.77c.02,.27,.01,.52-.03,.76Z"/></g><path class="cls-17" d="M367.17,113.19l22.78,3.52s1.77-2.64,1.3-6.12l-23.64-1.08s.14,1.95-.44,3.69Z"/></g><g><path class="cls-9" d="M206.96,23.4l9.68,8.61c.72,.75,.83,1.9,.25,2.78l-8.39,20.56c-1.28,2.77-4.14,4.46-7.18,4.25l-37.54-2.67c-1.87-.15-3.23-1.84-2.99-3.7l1.92-14.37,44.25-15.45Z"/><path class="cls-119" d="M163.43,37.88l12.41-11.98c.95-.92,2.21-1.46,3.54-1.53l26.43-1.23c1.76-.08,1.41,1,.55,2.53l-7.22,14.82c-.84,1.26-2.26,2.02-3.77,2.01l-30.54-.77c-1.93-.14-2.79-2.5-1.39-3.84Z"/><path class="cls-103" d="M164.43,37.06l11.71-11.31c.9-.87,2.09-1.38,3.34-1.44l24.94-1.16c1.66-.08,1.33,.94,.52,2.39l-6.81,13.98c-.79,1.19-2.13,1.9-3.56,1.89l-28.82-.73c-1.82-.13-2.63-2.36-1.31-3.63Z"/><polygon class="cls-34" points="199.13 40.49 208.5 55.35 216.89 34.79 206.35 25.67 199.13 40.49"/><path class="cls-56" d="M195.36,42.5l5.96,17.1s4.05,1.13,7.18-4.25l-9.37-14.85s-1.4,2.07-3.77,2.01Z"/><polygon class="cls-12" points="170.92 36.4 176.84 36.82 199.95 27.22 196.12 26.87 170.92 36.4"/></g><g><path class="cls-4" d="M365.75,190.85l-4.06,11.62c2.24-6.42,5.47-10.59,4.06-11.62Zm-4.06,11.62l-4.07,11.61c1.02-.31,1.82-5.2,4.07-11.61Zm4.06-11.62l-4.06,11.62c2.24-6.42,5.47-10.59,4.06-11.62Zm-4.06,11.62l-4.07,11.61c1.02-.31,1.82-5.2,4.07-11.61Zm11.72,10.06l3.94,2.24,4.26-11.62-4.56-.76c.08-.43,.16-.86,.22-1.29,.33-1.99,.44-3.94,.39-5.79l4.77-2.99-2.17-10.24-4.57,4.37c-.64-1.31-1.42-2.45-2.34-3.41-.25-.28-.52-.54-.79-.77l2.8-6.46-7.44-2.42h0l-1.79,6.51c-1.66,0-3.36,.42-5.04,1.18l-.82-6.15-8.19,6.2,1.89,5.45c-1.48,1.68-2.83,3.63-4,5.82l-3.95-2.23-4.26,11.62,4.56,.76c-.49,2.45-.67,4.83-.6,7.08l-4.77,2.99,2.17,10.24,4.57-4.37c.82,1.67,1.87,3.08,3.13,4.17l-2.8,6.47,7.32,2.86,1.13-4.12,.77-2.82c1.66,0,3.37-.42,5.05-1.18l.81,6.15,8.19-6.2-1.89-5.45c1.16-1.33,2.25-2.81,3.22-4.46,.27-.45,.52-.91,.78-1.37Zm-11.72-10.06c-2.25,6.42,0,13.03-4.07,11.61-4.08-1.44-5.56-7.79-3.32-14.19,2.25-6.42,7.37-10.46,11.44-9.03,4.08,1.42-1.82,5.2-4.06,11.62Zm4.06-11.62l-4.06,11.62c2.24-6.42,5.47-10.59,4.06-11.62Zm-4.06,11.62l-4.07,11.61c1.02-.31,1.82-5.2,4.07-11.61Z"/><path class="cls-28" d="M377.36,214.76l4.26-11.62-4.34-2.05-.7-.33,.46-6.4,4.82-2.35-1.59-9.94-10.5-3.42,1.93,4.61,3.66-7.46-7.44-2.42-3.06-1-7.33-2.86-1.37,5-6.38-3.03-8.19,6.2,2.49,6.7-7.66,21.24-3.78,13.79,7.27,.8-2.37,5.47,7.33,2.86,10.5,3.42-1.68-3.37-1.06-2.02,3.88,1.27,6.63,2.16,8.19-6.2-5.07-5.97,6.4-3.94,4.72,.86Zm-23.05-14.88c2.25-6.42,7.37-10.46,11.44-9.03l-4.06,11.62-4.07,11.61c-4.08-1.44-5.56-7.79-3.32-14.19Z"/><path class="cls-16" d="M366.86,211.34l4.25-11.62-4.56-.76c.48-2.44,.67-4.82,.61-7.07l4.77-2.99-2.18-10.24-4.57,4.37c-.81-1.67-1.86-3.09-3.13-4.17l2.8-6.46-7.33-2.86-1.9,6.94c-1.66,0-3.36,.42-5.04,1.18l-.81-6.14-8.19,6.2,1.89,5.45c-1.47,1.68-2.82,3.64-4,5.83l-3.95-2.23-4.25,11.62,4.56,.76c-.48,2.44-.67,4.82-.61,7.07l-4.77,2.99,2.18,10.24,4.57-4.37c.81,1.67,1.86,3.09,3.13,4.17l-2.8,6.46,7.33,2.86,1.9-6.94c1.66,0,3.36-.42,5.04-1.18l.81,6.14,8.19-6.2-1.89-5.45c1.47-1.68,2.82-3.64,4-5.83l3.95,2.23Zm-19.74-.68c-4.08-1.43-5.56-7.78-3.31-14.2,2.25-6.41,7.37-10.45,11.45-9.03,4.08,1.43,5.56,7.78,3.31,14.2-2.25,6.41-7.37,10.45-11.45,9.03Z"/><polygon class="cls-39" points="382.43 192.3 371.93 188.89 367.16 191.88 377.66 195.3 382.43 192.3"/><polygon class="cls-11" points="371.31 223.81 360.8 220.39 358.92 214.94 369.41 218.36 371.31 223.81"/><polygon class="cls-39" points="362.05 178.85 367.81 180.51 369.76 178.65 373.58 179.89 375.35 175.81 364.85 172.39 362.05 178.85"/><path class="cls-39" d="M346.76,221.61l5.5,2.29-.46-3.46s-2.96,1.56-5.04,1.18Z"/><path class="cls-39" d="M347.61,190.14l9.26,4.9s1.34-1.8,2.38-2.52c0,0-2.41-10.21-11.64-2.37Z"/></g></g></g></g></svg>