<?xml version="1.0" encoding="UTF-8"?><svg id="OBJECTS" xmlns="http://www.w3.org/2000/svg" xmlns:xlink="http://www.w3.org/1999/xlink" viewBox="0 0 496.03 307.16"><defs><style>.cls-1{fill:url(#Degradado_sin_nombre_120-3);}.cls-2{fill:url(#Degradado_sin_nombre_120-2);}.cls-3{filter:url(#drop-shadow-1);}.cls-4{fill:url(#Degradado_sin_nombre_120);}.cls-5{fill:url(#Degradado_sin_nombre_119-2);}.cls-6{filter:url(#drop-shadow-2);}.cls-7{fill:url(#Degradado_sin_nombre_119);}</style><filter id="drop-shadow-1" filterUnits="userSpaceOnUse"><feOffset dx="7.26" dy="7.26"/><feGaussianBlur result="blur" stdDeviation="12.1"/><feFlood flood-color="#21041c" flood-opacity=".4"/><feComposite in2="blur" operator="in"/><feComposite in="SourceGraphic"/></filter><linearGradient id="Degradado_sin_nombre_120" x1="545.33" y1="186.61" x2="351.6" y2="-14" gradientTransform="translate(822.11 292.71) rotate(-180)" gradientUnits="userSpaceOnUse"><stop offset="0" stop-color="#18dbd0"/><stop offset="1" stop-color="#a3f"/></linearGradient><linearGradient id="Degradado_sin_nombre_119" x1="446.13" y1="160.83" x2="520.41" y2="81.79" gradientTransform="translate(822.11 292.71) rotate(-180)" gradientUnits="userSpaceOnUse"><stop offset="0" stop-color="#3d33ff"/><stop offset=".99" stop-color="#925cff"/></linearGradient><filter id="drop-shadow-2" filterUnits="userSpaceOnUse"><feOffset dx="7.26" dy="7.26"/><feGaussianBlur result="blur-2" stdDeviation="12.1"/><feFlood flood-color="#21041c" flood-opacity=".4"/><feComposite in2="blur-2" operator="in"/><feComposite in="SourceGraphic"/></filter><linearGradient id="Degradado_sin_nombre_120-2" x1="411.78" y1="186.61" x2="218.05" y2="-14" gradientTransform="translate(-190.71 7.5)" xlink:href="#Degradado_sin_nombre_120"/><linearGradient id="Degradado_sin_nombre_119-2" x1="312.58" y1="160.83" x2="386.86" y2="81.79" gradientTransform="translate(-190.71 7.5)" xlink:href="#Degradado_sin_nombre_119"/><linearGradient id="Degradado_sin_nombre_120-3" x1="178.57" y1="149.03" x2="319.15" y2="149.03" gradientTransform="matrix(1, 0, 0, 1, 0, 0)" xlink:href="#Degradado_sin_nombre_120"/></defs><g class="cls-3"><g><path class="cls-4" d="M319.28,66.48c3.37,0,6.73,1.55,9.3,4.64l56.3,67.78c5.14,6.19,5.14,16.21,0,22.4l-56.3,67.78c-5.14,6.19-13.47,6.19-18.6,0s-5.14-16.21,0-22.4l47-56.58-47-56.58c-5.14-6.19-5.14-16.21,0-22.4,2.57-3.09,5.94-4.64,9.3-4.64Z"/><path class="cls-7" d="M356.97,105.3h0c4.76,5.73,7.71,13.65,7.71,22.4s-2.95,16.67-7.71,22.4h0l-47,56.58c-5.14,6.19-5.14,16.21,0,22.4s13.47,6.19,18.6,0l56.3-67.78c5.14-6.19,5.14-16.21,0-22.4l-27.91-33.6Z"/></g></g><g class="cls-6"><g><path class="cls-2" d="M178.57,233.73c-3.37,0-6.73-1.55-9.3-4.64l-56.3-67.78c-5.14-6.19-5.14-16.21,0-22.4l56.3-67.78c5.14-6.19,13.47-6.19,18.6,0,5.14,6.19,5.14,16.21,0,22.4l-47,56.58,47,56.58c5.14,6.19,5.14,16.21,0,22.4-2.57,3.09-5.94,4.64-9.3,4.64Z"/><path class="cls-5" d="M140.88,194.9h0c-4.76-5.73-7.71-13.65-7.71-22.4s2.95-16.67,7.71-22.4h0l47-56.58c5.14-6.19,5.14-16.21,0-22.4-5.14-6.19-13.47-6.19-18.6,0l-56.3,67.78c-5.14,6.19-5.14,16.21,0,22.4l27.91,33.6Z"/></g></g><polyline class="cls-1" points="216.23 132.84 195.04 182.87 178.57 182.87 208.7 114.54 223.76 114.54 244.97 172.07 283.7 171.55 290.18 156.18 252 156.54 236.76 114.54 319.15 114.54 313.61 126.92 256.61 127.06 262.43 141.75 307.27 141.49 291.55 182.87 234.47 183.51"/></svg>